<svg xmlns="http://www.w3.org/2000/svg" width="1553.812" height="1878.467" viewBox="0 0 1553.812 1878.467">
  <g id="ENTITIES" transform="translate(-0.109 -0.006)">
    <path id="Path_390" data-name="Path 390"
      d="M3143.92,4835.17c-9.91,0-19.63-.3-29.55-2.32-38.27-7.78-76.73-14.66-115.14-21.76-3.35-.62-6.86-.41-14.59-.82,5.89,3.31,7.94,4.82,10.24,5.69,10.37,3.92,20.77,7.77,31.24,11.45,24.22,8.52,48.51,16.88,72.73,25.41,3.83,1.35,7.94,2.68,11,5.15,1.71,1.39,2.27,5.24,1.88,7.76-.25,1.61-3.15,3.94-4.91,4a201.918,201.918,0,0,1-24.47-.65c-16.24-1.6-32.41-3.819-48.62-5.669-10.43-1.19-20.86-2.33-31.31-3.18-5.49-.45-11.12-1.63-19.21,1.23,22.28,7.06,42.15,13.38,62,19.66,12.8,4,25.62,8,38.41,12.09,2.77.88,6,1.49,8,3.37a10.772,10.772,0,0,1,2.72,7.54c-.08,1.57-2.75,3.72-4.66,4.32-2.69.85-5.77.72-8.67.62-21-.71-42.08.58-62.93-3.17-1.07-.2-2.26.29-5.51.78,3.46,1.67,5.32,2.78,7.33,3.48a80.94,80.94,0,0,0,8.38,2.39c13.58,3.35,27.2,6.59,40.76,10,3.34.85,6.92,1.81,9.61,3.78,2,1.51,4.61,5.86,3.9,6.95-3.79,5.74,2.5,8.51,3.1,14-2.09,1-4.43,2.78-6.94,3-6.39.66-12.87.31-19.25,1a18.751,18.751,0,0,0-11.12,5.33c5.28,1.15,10.58,2.2,15.81,3.54a3.369,3.369,0,0,1,2.05,2.52c-.13,1.53-.74,3.94-1.77,4.32-6.31,2.35-12.8,4.23-20.19,6.57l10.47,4.9c-9.66,5.81-16.1,4-22,3.33-4.46-.47-8.83-2.52-13-4.34-2.46-1.07-1.72-5.86,1.12-7.18,2.09-1,4.5-1.21,6.61-2.14,1.35-.6,2.39-1.87,3.46-2.74-1.31-4.37-4.7-3.47-7.3-4.06-6.79-1.54-13.65-2.84-20.37-4.68-1.1-.3-2.32-2.89-2.17-4.29s1.79-3.5,3.05-3.71a119.517,119.517,0,0,1,13.91-1.17c5.18-.25,10.35-.38,16.55-5.17l-36.75-7.29V4920.2q-31.68-7.5-63-15.07c-4.54-1.09-9.05-2.33-13.47-3.81-3.79-1.26-5.54-4.2-4.9-8.17.53-3.31,2.93-4.93,6.1-5.21a67.356,67.356,0,0,1,8.75-.2c23.9,1,47.92-.69,71.72,3.32,5,.84,10.2.12,15.8.12-2.7-5.08-7.25-5.08-10.91-6.24-34-10.73-68-21.17-101.94-31.88a71.05,71.05,0,0,1-14.22-6.35c-3.6-2.11-2.4-9.05,1.68-10a38.993,38.993,0,0,1,12.07-1c17.42,1.55,34.78,3.62,52.2,5.23,21.48,2,43,3.73,64.49,5.5,1.07.08,2.21-.6,5.16-1.47-4.11-2.08-6.86-3.88-9.87-4.93q-47.11-16.5-94.3-32.79c-17.65-6.14-35.31-12.23-52.88-18.56a40.238,40.238,0,0,1-10.69-5.7,7.141,7.141,0,0,1-2.07-6.11c.43-1.77,3-4.17,4.68-4.25a74.929,74.929,0,0,1,17.4.71c32.66,6.13,65.23,12.67,97.86,18.9a24.5,24.5,0,0,0,13.74-1.221c-4.77-1.8-9.47-3.79-14.31-5.359q-55.78-18.18-111.59-36.27a66.6,66.6,0,0,1-12.83-5.339c-3.35-1.941-3.88-5.631-2.47-9.271,1.22-3.19,4-4.35,7-4,3.43.46,6.75,1.74,10.11,2.66.89.74,1.68,1.88,2.69,2.14,15.19,3.92,30.39,7.8,45.65,11.46,2.39.58,5,.08,10.58.08-17.34-9.06-32.78-13.7-48.67-17-4.44-1.41-9-2.61-13.3-4.29-9.45-3.67-12.56-8.78-11-19.06a106.352,106.352,0,0,1,4.56-18.62c16-45.95,37.59-88.94,68.08-127.22,21.16-26.56,44.66-50.73,71.87-71.08,28.75-21.49,60-38.76,95.58-45.09,37.6-6.69,74.6-4.8,106.88,19.39,17.49,13.1,31.55,29.13,38.76,50.28-1.94,2.13-3.73,4.4-5.83,6.35a244.878,244.878,0,0,0-34.12,39.43c-25.66,36.79-41,77.83-50.84,121.21-1.28,5.64-2.74,11.24-4.11,16.86-1.53-.76-3-1.66-4.59-2.26-13.36-5-23-2.64-31.55,8.48-3.43,4.46-5.8,9.72-8.65,14.62-10.72,8.34-18.62,18.5-22.22,31.93-3.55,13.24.42,25.67,11.58,33.22a28.631,28.631,0,0,0,23.11,4.529l30.48,25.141-1.5,3.9c-2.81-.73-5.65-1.34-8.41-2.19-19.44-6-38.84-12.17-58.31-18.07-2.16-.65-4.72,0-7.1.1,25,10.6,49.78,20.5,75.7,27Q3143.17,4829.93,3143.92,4835.17Zm-170-29.37-8.48-1.49-.12,2.28Z"
      transform="translate(-2849.18 -3127.6)" fill="#c9b094" />
    <path id="Path_391" data-name="Path 391"
      d="M4028.25,4016.21a168.918,168.918,0,0,1,63.83,22,43.813,43.813,0,0,0,6.49,2.5c3.14,2.51,6.33,5,9.42,7.53,12.43,10.37,25.32,19.71,34,34.46,24.91,42.5,42.66,87.68,54.89,135.22,2.17,8.41,4.63,16.75,7,25.13-2.37,4.59-5.51,9-6.93,13.82-2.19,7.49.82,10.84,10.7,13.88q-.37,8.82-.74,17.63c-5.8,2.48-12.19,4.11-17.29,7.6-11,7.58-21.1,16.32-20.32,31.71-11.21,7.1-22.79,13.44-35.68,17-9.1-3.82-18.17-7.5-28.41-7.06a30.221,30.221,0,0,0-19.08,7.39c-5.07,4.43-11.72,8.1-11.31,16.42l-46.14,7.55c-14.51-19.86-50.61-17.31-63.62.77l-35.88-1.75c1-4.27.22-8.06-3-11.19a32.346,32.346,0,0,0-18.28-9.24c-11.7-1.79-21.68,2.06-31,8.54a67.344,67.344,0,0,1-25.31-6.32c3.84-3.19,6.27-7.29,4.76-12.17-1.14-3.69-3-7.74-5.79-10.23-7.83-7-16.85-10.1-27.12-4.94-3.1,1.56-6.17,3.17-9.26,4.76-13.11-9.63-19.83-21.69-14.71-38.34a11.555,11.555,0,0,0,0-3.42c4.6-.8,8.95-2.24,10.59-7.129,1.82-5.44-.35-9.87-4.4-13.56-.83-.75-1.63-1.54-2.45-2.32q1.38-8.86,2.75-17.73a382.981,382.981,0,0,1,30.88-96.12c17-36.32,39.53-68.54,70.18-94.79,2.15-1.85,3.81-4.27,5.7-6.43l35.22-19c2.28-.23,4.72,0,6.82-.76,16.35-5.75,32.84-10.54,50.44-10.22,2,0,4-1.78,6.08-2.74h1.31l1.24-.44,1,.16C4018.86,4018.1,4023.46,4017.9,4028.25,4016.21ZM3939,4242.44c6.69,0,13.74.44,20.71-.13a117.13,117.13,0,0,0,18.92-3.331c8.89-2.22,14-8.87,15.51-17.279s-.87-16.32-8.55-21.54c-5.79-3.94-11.31-8.57-17.61-11.43q-22.26-10.11-45.22-18.67c-7.27-2.71-15.05-2.58-21.66,2.78-11.85,9.6-22.63,20.27-31.06,33a52.8,52.8,0,0,0-5.85,12.69c-2.7,8.24.23,14,8.74,15.77C3894.64,4238.77,3916.17,4244.87,3939,4242.44Zm221.32-16.92c4.76-12.7.25-23.88-7.61-33.76s-15.92-19.6-30.91-20.38c-10.22-.54-19.37.24-28.89,4.06-14.29,5.74-26.84,14-39,23.15-4.85,3.62-7.76,8.4-9.72,14.15a58.549,58.549,0,0,0-3.13,20.1c10.79,8.11,15.64,10.58,25.57,11.09a251.351,251.351,0,0,0,28-.09c14.99-.93,45.37-9.7,65.72-18.32Z"
      transform="translate(-2849.18 -3127.6)" fill="#d33328" />
    <path id="Path_392" data-name="Path 392"
      d="M3638,4897.4q-22.17,9.78-44.36,19.55c-4.22,1.85-8.34,4.24-12.76,5.2-2.21.49-6.06-1-7.24-2.83s-1.11-5.89.13-7.92c1.69-2.78,4.87-4.76,7.65-6.73,12.27-8.67,24.72-17.08,36.9-25.87,4.11-3,7.62-6.78,11.4-10.22,7.95-3.12,7.95-3.12,10.55-9.82l-12.75,7.12c-6.36,2.81-12.82,5.4-19,8.46-22.4,11.05-44.67,22.38-67.13,33.3a56.994,56.994,0,0,1-14.75,4.44c-1.6.29-4.5-1.7-5.31-3.37s-.57-4.95.62-6.3a44.938,44.938,0,0,1,9.29-7.66c11.67-7.6,23.56-14.87,35.18-22.55,2.74-1.82,4.74-4.74,7.07-7.18,7.29-1.27,13.69-4,20.87-12.45a50.356,50.356,0,0,0-22.69,10.08c-6.3,2.73-12.95,4.86-18.81,8.33-10,5.92-20.17,7.82-31.26,4.2,6.48-21.18,13.54-42.25,11.76-64.92l18.52-14.42c10.13,5.22,13.82,4.08,15.92-5.57.82-3.82.22-8,.26-11.93,9.64-9.79,14.09-21.94,16.07-35.22,9.7-4.58,9.84-13.21,9.47-22.13-1.12-27.14-28.13-42.66-52.05-29.74-4,2.17-7.59,5.18-11.37,7.8-1.23-5.07-2.56-10.11-3.69-15.2-8.38-37.58-21-73.5-41.22-106.51-5.1-8.32-9.95-16.78-14.92-25.18,4.37-13.56,15.16-22.14,25.68-30,27-20.15,57.46-26.77,90.9-21.16,36.83,6.18,67.78,23.5,96.17,47,27,22.34,47.35,49.88,63.47,80.44,14.49,27.49,24,56.84,25.63,88.28.15,2.9-.12,6.1,1,8.62,5,11.24-.51,21.78-1.83,32.54-.62,5-5.19,7.49-9.17,10-14.84,9.26-29.72,18.45-44.52,27.78-6.26,4-13.26,7-18.21,13,3.42,2.87,5.89.76,8.39-.46,13.09-6.42,26.11-13,39.26-19.29,6.28-3,10.44-2.67,12.82.3,2.82,3.51,1.24,8-5.06,12.81-7,5.29-14.13,10.31-21.3,15.3-19.1,13.31-38.24,26.55-60.43,41.94,5.77-.29,8.33.25,10.22-.63,13.22-6.15,26.24-12.74,39.46-18.88a62.013,62.013,0,0,1,13.18-4.26c2.87-.6,6.18.38,7,3.73.47,2,.18,5-1.06,6.4a64.2,64.2,0,0,1-10.33,9.35c-13.59,10-27.4,19.79-41,29.82-3.72,2.74-7,6.08-10.48,9.15-3.45,1.18-7,2.28-8.26,6.56,5.51,2,7.55-1.92,10.28-4.33,9-3.81,18.08-7.57,27.08-11.44,4.78-2.05,9.36-4.65,14.26-6.35,3.7-1.28,6.76.65,8.61,4.06a5.869,5.869,0,0,1-1.49,7.82c-9.56,7.53-19.42,14.67-28.93,22.26-3,2.44-5.37,5.8-8,8.75-7.84,3.12-7.84,3.12-10.33,9.66l12.7-6.8c7.87-3.16,15.78-6.24,23.61-9.5,5.71-2.37,10.89-6.37,17.61-5.5l-.17-.16c-1.36,4.44-2.74,8.86-4.08,13.3-2.66,8.74-8,15.33-15.51,20.52-7.15,5-14,10.39-21,15.66l4.71,10.68c-1.85,1.95-3.42,4.56-5.73,5.91-12.43,7.29-23.21,17.41-38.59,19.6-6.59.94-12.57,5.94-18.93,8.89-2.6,1.2-5.57,2.83-8.15,2.5-2.43-.3-5.21-2.5-6.63-4.65-.95-1.45-.49-4.74.59-6.38,1.53-2.31,4.14-4,6.41-5.74,8.76-6.79,17.64-13.44,26.31-20.35,1.59-1.26,2.4-3.49,4.88-7.27-5.47.72-9,.42-11.85,1.69-11.19,5-22.1,10.63-33.27,15.66a34.576,34.576,0,0,1-11.63,2.931c-1.76.12-4.44-1.911-5.32-3.67s-.69-4.9.45-6.25a67.309,67.309,0,0,1,10.22-9.44c6.84-5.33,14.52-9.66,19.74-16.88a4.667,4.667,0,0,0,1.43-.629c1-1,1.92-2.1,2.87-3.17a15.2,15.2,0,0,0-4.09-.669c-.89.089-1.68,1.14-2.51,1.759-8.59,3.64-17.21,7.18-25.74,11-5.33,2.36-10.44,5.24-15.79,7.59-5.14,2.26-10.66.81-12.11-3.07-1.8-4.79,1.29-8,4.56-10.36q26.08-19.2,52.46-38c3.8-2.73,8.08-4.83,9.53-9.79,7.88-3,7.88-3,10.48-9.72Zm28.16,62.35-2.18-.13c.34.34.66.93,1,.95s.77-.51,1.17-.82Z"
      transform="translate(-2849.18 -3127.6)" fill="#c9b094" />
    <path id="Path_393" data-name="Path 393"
      d="M3470.3,4552.16c5,8.4,9.82,16.86,14.92,25.18,20.22,33,32.84,68.93,41.22,106.51,1.13,5.09,2.46,10.13,3.69,15.19,0,6.31-.38,12.67.23,18.92.3,3.14,2.44,6.09,3.75,9.12q-.72,10.13-1.45,20.24c-2.79-.57-5.56-1.26-8.37-1.68-15.63-2.37-28.26,2.8-37.13,15.85-2.82,4.16-4.14,9.33-6.15,14l-.06,3.73c-16,7.13-33.12,10.32-50,14.17-4.45-2.7-8.8-5.6-13.39-8.05-13.76-7.35-27.71-7.86-41.47-.09-7.26,4.1-7.83,8.46-3,17l-54.53,1.39c-3-2.65-6.12-5.2-9-8-7.39-7.07-16.68-10.06-26.3-12.09-6.45-1.37-12.6.3-18.18,3.74-3.8,2.34-5,6.12-5.22,10.32-15-.47-29.48-3.8-43.61-8.74.89-8.54-5.36-12.43-11.19-16-12.33-7.58-25.16-7.39-38-.89-3.75-2.76-7.48-5.56-11.26-8.28-8-5.76-13.34-13-13.1-23.36,13.85-9,14.29-11.68,3.74-23a27.573,27.573,0,0,0-2.63-2.18l.1-16.94c1.38-5.62,2.84-11.22,4.12-16.86,9.84-43.38,25.18-84.42,50.84-121.21A244.873,244.873,0,0,1,3233,4520.8c2.1-1.95,3.89-4.22,5.83-6.35,4.32-2.67,8.7-5.26,13-8,13.41-8.68,27.29-16.39,42.85-20.53,7.14.67,13.88-.42,19.88-4.65,8-.07,16-.09,24-.22,5.74-.09,11.48-.32,16.41-3.89l5.54,3.36c6.64,2,13.33,3.87,19.91,6.07,30.46,10.18,55.23,28.71,76.61,52.23C3461.19,4543.46,3465.84,4547.72,3470.3,4552.16Zm-205.38,157.69c0-.36.07-.72.1-1.08,7.59,0,15.22.49,22.76-.14a189.664,189.664,0,0,0,22.38-3.71,10.259,10.259,0,0,0,8.22-8.149c4.72-19.84-7.67-42.48-27.07-49-12.69-4.29-25.53-8.14-38.22-12.42a27.8,27.8,0,0,0-18.87.07c-10.55,3.79-20.17,9.31-28,17.379-9.49,9.77-11.79,21.5-6.55,33.9a30.491,30.491,0,0,0,23.67,18.69C3237.05,4707.64,3251,4708.42,3264.92,4709.85Zm140-4.3.12,1.29c12.08-1.51,24.16-4.2,36.24-4.21,14.08,0,24.27-6.9,34.18-15.06,11.3-9.32,12.1-26.15,2.47-37-10-11.3-38.87-19.92-54.49-8.66-9.39,6.77-19.79,12.15-29.77,18.09-7.81,4.64-13.09,11.58-16.83,19.53-2.72,5.79-3.92,12.17-1.61,18.62,1.49,4.16,4.18,7.15,8.76,7.32,7.01.271,14.01.08,21.01.08Z"
      transform="translate(-2849.18 -3127.6)" fill="#d33328" />
    <path id="Path_394" data-name="Path 394"
      d="M4203.81,4243.07c-2.33-8.38-4.79-16.72-7-25.13-12.23-47.54-30-92.72-54.89-135.22-8.65-14.75-21.54-24.09-34-34.46-3.09-2.57-6.28-5-9.42-7.53,11.49-17.63,29.5-26,48.16-32.93,26.14-9.72,52.62-8.51,79.13-1,26.22,7.42,49.65,20.1,71.14,36.69,39.42,30.41,66.57,69.78,85.19,115.53,15.05,37,18.11,75.71,17.18,115.06-.15,6.52-3.24,11-9,13.82-7.36,3.55-14.77,7-22.08,10.69a16.223,16.223,0,0,0-7.58,7.11c3.76-.89,7.57-1.64,11.29-2.71,7.28-2.12,14.45-4.62,21.78-6.55,3.84-1,6.9,1.06,8.6,4.46,1.86,3.73.24,7-2.8,9.15a107.837,107.837,0,0,1-10.61,6.109c-13.819,7.581-27.689,15.081-41.459,22.75a46.378,46.378,0,0,0-6,4.56c.189,4.65,3.069,4.75,5.049,4.371,5.7-1.08,11.33-2.62,16.93-4.21,9.53-2.71,19-5.73,28.55-8.35,4.62-1.26,8.61.7,10.26,4.35,1.57,3.48.12,7.41-4.46,10.21-13,7.91-26.08,15.53-39.05,23.43-2.79,1.7-6.72,2.58-6.86,8.28,1.73.38,3.76,1.39,5.6,1.11,4.57-.7,9-2.6,13.58-2.8,2.28-.09,5.34,2,6.78,4,.89,1.23.13,5-1.19,6.21A119.42,119.42,0,0,1,4363,4400.8c-5.7,3.95-11.65,7.52-17.61,11.34,1.09,1.26,1.39,1.88,1.86,2.09,4.17,1.84,9.42,2.61,9.87,8.48.35,4.63-3.17,7.29-6.25,10q-22.52,19.45-45.12,38.82a47.431,47.431,0,0,1-5.56,4.23,7.089,7.089,0,0,1-9.36-1.95c-2-2.71-1.64-5.49.39-8,4-4.93,8.15-9.75,12.22-14.63q2.7-1,5.42-2l6-4.67c-4.56-2.84-7.16-1.46-9.42,1.37l-4.34,2.58c-6.69,1.85-13.37,3.75-20.08,5.55-2.21.59-4.78,1.81-6.66,1.19a12.2,12.2,0,0,1-6.33-5c-.85-1.509-.13-4.759,1.06-6.359,1.65-2.23,4.29-3.81,6.69-5.38,8.74-5.71,17.56-11.31,26.35-16.95l9.32-4.1c-4.41-4.17-7-2.52-9.35.56-11.61,3.81-23.2,7.71-34.85,11.42-7.23,2.31-11.82,1.08-13.51-3.29-1.42-3.66.39-7.47,6.28-11.1,16.4-10.09,33-19.87,49.43-29.89,5.35-3.26,10.49-6.86,16.69-10.95-5.94-3.36-10.13-1.33-14.32-.12-16.81,4.85-33.57,9.85-50.45,14.46a33.207,33.207,0,0,1-12,.82c-1.8-.19-4.24-2.57-4.75-4.42s.44-5.15,1.88-6.09c8.3-5.39,16.87-10.37,25.48-15.27,10.13-5.79,20.43-11.29,30.57-17.06,1.85-1.05,3.3-2.78,5.28-4.5-5.62-2.69-9.89-.42-14.3.94q-25.9,8-51.86,15.87c-3.34,1-6.68,2.48-10.08,2.71-2.66.19-6.27-.41-7.9-2.13s-1.38-5.3-2-8.06l6.51-3.48q45.23-21,90.43-42.06c.6-.29.7-1.65,1.31-3.25-8.29-.62-15,3.36-22,5.87-19.75,7.08-39.44,14.34-59.15,21.54l.09-20.1c6-4.51,5.74-11.84,8.16-18,7.47.72,11.15-4.09,11.94-10.16,1-8,1.95-16.55.27-24.28-3.83-17.54-24.38-30.88-40.19-22.45Zm139.8,143,2.8-1.22c-.22-.42-.41-1.17-.66-1.19a18.113,18.113,0,0,0-2.84.181c.23.72.46,1.47.7,2.209Zm-7.8-36.86a16.62,16.62,0,0,0-2.73-1c-.33-.06-.8.6-1.2.93.57.57,1.22,1.66,1.71,1.59.79-.12,1.48-.98,2.22-1.54Z"
      transform="translate(-2849.18 -3127.6)" fill="#c9b094" />
    <path id="Path_395" data-name="Path 395"
      d="M3912.65,4047.43c-1.89,2.16-3.55,4.58-5.7,6.43-30.65,26.25-53.14,58.47-70.18,94.79a382.725,382.725,0,0,0-30.87,96.1c-2.22-.5-4.47-.95-6.71-1.45-10.16-2.29-18,1.42-23.94,9.52-1.67,2.27-2.77,5-4.13,7.47-15.19,11-25.21,25.63-29,44-3.66,17.83.74,33.22,15.34,45.09,7.24,5.89,14.46,6.93,22.14,1.05l14.76,14.35c-.42,2.57-.85,5.13-1.28,7.7l-23.65-4.54c-2.7-2.36-5.49-4-9.86-.42l8.29,2.31c3.93,2.46,8.26,4.48,11.63,7.56,1.76,1.6,2.7,5.14,2.45,7.65-.31,3.1-3.4,5-6.48,4.6-10.35-1.52-20.62-3.5-30.93-5.25a14.462,14.462,0,0,0-8.86.69c3.49,1.73,7,3.51,10.47,5.18,7.37,3.52,14.82,6.85,22.11,10.51,2.9,1.46,4.3,4.6,2.82,7.36a11.509,11.509,0,0,1-6.27,5.23c-2.57.73-5.68-.33-8.53-.76-3.44-.52-6.84-1.32-10.3-1.74-1-.12-2.14.67-4.55,1.5,4,2.5,7.3,4.57,10.62,6.56,4.39,2.63,10.15,4.16,9.18,11.13-.88,6.32-7.25,4.44-10.86,7.11,2.11,2,4.57,3.7,6.21,6a7.07,7.07,0,0,1-3.9,11.14c-2.76.68-6,1.39-8.54.56-6.93-2.28-12.54-.07-17.57,4.64-6.15-1.9-11.78-3.33-17.17-5.38-10.44-4-10.84-5.36-6.18-17.12-6.18-3-12.51-5.71-18.5-9.08-1.64-.92-3.42-4-3-5.58.62-2.45,2.64-5.65,4.8-6.38,4.21-1.43,8.93-1.37,16-2.24-4.74-3-7.4-5.06-10.33-6.56-8.82-4.54-17.82-8.74-26.59-13.37-4.83-2.55-6.29-6.06-4.91-9.87,1.49-4.1,5-4.35,8.56-4.45,1.71-.06,3.42-.35,5.87-.61-1.86-4.58-5.88-5.06-9.17-6.69a152.185,152.185,0,0,1-16.63-9.24c-1.36-.9-2.06-4.44-1.45-6.2a8,8,0,0,1,5-4.28c2.69-.64,5.76-.22,8.57.291,9.73,1.77,19.4,3.84,29.13,5.63,1.61.29,3.37-.24,7.19-.57-3.49-2.52-5.35-4.39-7.59-5.4-14.34-6.51-28.79-12.78-43.15-19.24-6.26-2.81-8.53-6.11-7.49-10.23,1.22-4.79,5.79-6.44,12.89-4.57,6.19,1.64,12.34,3.4,18.55,4.95,1,.25,2.22-.35,3.56-.59,1-4-2.79-4.32-4.78-5.26-12.65-6-25.45-11.67-38.18-17.5-3.71-1.7-7.44-3.42-11-5.43-3.75-2.12-5.18-5.89-3.68-8.7,1.9-3.54,5.09-4.8,8.8-4.19,2.84.46,5.51,1.9,8.34,2.46,2,.4,4.23.08,10.48.08-7.22-3.51-10.73-5.29-14.3-6.94-15-6.9-21.83-19.51-18-35.59,12.75-53,30.19-104.2,59.43-150.64,17.86-28.37,39.66-53.37,67.47-72.57a138.347,138.347,0,0,1,63.27-23.73,79.362,79.362,0,0,1,20.94.19c34.83,5.26,63.73,21.6,87.05,47.89C3911.49,4044,3911.92,4045.87,3912.65,4047.43Z"
      transform="translate(-2849.18 -3127.6)" fill="#c9b094" />
    <path id="Path_396" data-name="Path 396"
      d="M3793.09,4372.5c.43-2.57.86-5.13,1.28-7.7l8.72,1c.75,3.95,1,8.07,2.35,11.8,8,22.08,24.23,27.8,44.87,16l1.5-.87,20.07,3.83a56.252,56.252,0,0,0,16.611,19.93c10.54,7.83,22.1,10.48,34.1,3.26,4.4-2.65,8.09-6.47,12.1-9.75l73.38,1.14c.45,2.23.42,4.7,1.42,6.64,4.24,8.21,12.67,9.18,17.57,1.92,2.55-3.76,4.21-8.13,6.28-12.22,10.26-1.1,20.59-1.79,30.78-3.39,14.74-2.31,29.38-5.27,44.07-8,6.1,5.22,12.59,4.42,19.51,1.72,7.53-2.92,12-8.82,16.08-15.2a61.426,61.426,0,0,0,6.63-1.471c20.73-7,39.3-18.109,57.2-30.439l9.33,1c1.08,35.69-.7,71.17-9.47,105.93-2.84,11.24-7.29,22.08-11,33.1-2.81,8.32-8.51,13.19-16.81,16.33a331.231,331.231,0,0,1-55.38,15.81A566.863,566.863,0,0,1,3931,4526.1c-25.37-3.89-50.3-10-73.85-20.67-12.82-5.82-24.93-12.79-35-22.75-12.84-12.67-20-27.55-22.47-46C3796.76,4415.32,3794.2,4394,3793.09,4372.5Z"
      transform="translate(-2849.18 -3127.6)" fill="#d33329" />
    <path id="Path_397" data-name="Path 397"
      d="M3533.31,4810.26c1.78,22.67-5.28,43.74-11.76,64.92a308.822,308.822,0,0,1-23.18,39c-8.09,11.73-18.5,17-32.42,17-16.91,0-33.83.56-50.74.67-64.76.45-129.52.5-194.26,1.39-21,.3-37.21-7.92-50.33-23.39-8.39-9.89-14.73-21.06-17.76-33.75-3.24-13.58-6-27.28-8.94-40.94q-.75-5.23-1.49-10.47l-1.88-6.84,1.5-3.9,10.57,3.59c3.74,5,7.28,10.19,11.31,15,4.91,5.82,11.34,9.18,18.68,11.53,10.09,3.24,19.15.48,28.31-3,13.19,1.86,26.37,3.75,39.56,5.56,21.78,3,43.48,6.86,65.62,5.69,1.49,1.76,2.89,3.6,4.47,5.27,14.55,15.36,29,14.49,41.73-2.46.69-.92,1.53-1.72,2.31-2.57l66.16-7.93c1.73,2.23,3.19,4.75,5.23,6.65,6,5.55,10,5.72,16.64,1.42,6.06-3.94,9.25-9.71,11.05-16.46a187.812,187.812,0,0,0,44.34-14.62C3516.41,4817.71,3524.88,4814,3533.31,4810.26Z"
      transform="translate(-2849.18 -3127.6)" fill="#d3342a" />
    <path id="Path_398" data-name="Path 398"
      d="M3361.62,3505c.72,8.67,2.07,17.35,2.05,26q-.23,106.53-.88,213.07c-14,.29-24.3-7.24-33.54-16.42s-15.64-20.36-19.93-32.61c-7.06-20.16-9.88-40.78-5.3-62,1.91-8.86,2.38-17.37-4.49-24.59q.67-43.26,1.36-86.53c.15-9.31.76-18.5,6.52-26.41,3.07-1.38,6.16-2.73,9.23-4.15,15.68-7.27,29-4.45,40.45,8.57C3358.58,3501.67,3360.11,3503.33,3361.62,3505Z"
      transform="translate(-2849.18 -3127.6)" fill="#533215" />
    <path id="Path_399" data-name="Path 399"
      d="M3947.23,3691.61q-.06-77.78-.08-155.56c0-6.4.41-12.79.64-19.19,21.89,17.58,38.59,39.92,56.2,61.41,5,6.09,6.7,13.13,6.65,21-.09,12.73.58,25.46.93,38.2-.18,16.81-.47,33.62-.52,50.43-.11,34.22-.08,68.44-.11,102.66-28.72-4.28-46.06-22.21-56.69-47.78C3947.45,3726.45,3947.48,3709,3947.23,3691.61Z"
      transform="translate(-2849.18 -3127.6)" fill="#533114" />
    <path id="Path_400" data-name="Path 400"
      d="M3362.43,3796.86q-.36,82.92-.71,165.82c-22.46,1.36-37.4-10.94-49.26-27.91-9.64-13.8-13.15-29.71-13.43-46.4q-.41-24.47-.88-48.93.54-55.17,1.07-110.31c6,.34,8.68,5.17,12,9a84.2,84.2,0,0,0,43.42,26.93c2.11.54,4.15,1.34,6.2,2C3361.41,3777.48,3361.92,3787.17,3362.43,3796.86Z"
      transform="translate(-2849.18 -3127.6)" fill="#543215" />
    <path id="Path_401" data-name="Path 401"
      d="M3946.76,3448.72q.12-61.68.26-123.35c0-6.36.37-12.72.56-19.08,10,7.91,20,15.69,29.85,23.79a183.5,183.5,0,0,1,14,13.08c13.26,13.52,19.51,29.75,19.18,48.77-.23,13.31.43,26.64.69,40q-.21,41.91-.43,83.81c-.09,12.21-.36,24.43-.54,36.64a32.446,32.446,0,0,1-4.11-3.19c-13.85-14.79-27.54-29.74-41.49-44.44-8.69-9.15-13.52-20.23-16.35-32.15-1.45-6.12-1.24-12.64-1.77-19C3946.63,3452,3946.7,3450.34,3946.76,3448.72Z"
      transform="translate(-2849.18 -3127.6)" fill="#533114" />
    <path id="Path_402" data-name="Path 402"
      d="M3946.27,3220.27c.12-17.49.18-35,.42-52.47.07-5.23.08-10.57,1.11-15.66,2.74-13.52,14.75-23.6,28.39-24.47,13.1-.84,26,6.58,30.43,19.14a69.375,69.375,0,0,1,3.44,22.22c.42,45.48.43,91,.49,136.45,0,8.73-.32,17.47-.5,26.19-10.65-8.89-20.76-18.57-32.09-26.5-21.35-14.93-30.59-35.39-30.94-60.72C3946.91,3236.39,3946.53,3228.33,3946.27,3220.27Z"
      transform="translate(-2849.18 -3127.6)" fill="#553317" />
    <path id="Path_403" data-name="Path 403"
      d="M4011.68,3839q-.15,45-.28,90.09-.08,26.85-.08,53.72c-6.72-1.64-13.73-2.53-20.11-5-26.95-10.58-43-34.58-43.33-63.52-.11-9.86-.58-19.71-.89-29.57q.26-38,.53-76c.09-11,.26-21.89.39-32.83,3.52,3,7.32,5.66,10.52,8.94,11.61,11.87,25.05,20.53,41.21,24.87,3.74,1,7.25,2.82,10.58,4.14C4010.74,3822.89,4011.21,3831,4011.68,3839Z"
      transform="translate(-2849.18 -3127.6)" fill="#533114" />
    <path id="Path_404" data-name="Path 404"
      d="M3359.78,4390.15q-.53,35.52-1.06,71.05c-6.93-.11-13.86-.39-20.79-.24-8.74.19-17.4.41-25.84-2.6s-13.49-8.57-14.05-17.87c-.46-7.51-1.29-15-1.95-22.49.23-.39.75-.89.65-1.17a13.989,13.989,0,0,0-1.219-2.24q.429-59,.879-118c0-5.2.26-10.4.4-15.59,15.38,6.66,29.49,15.57,43.4,24.79,3.82,2.54,7.06,6,10.52,9a24.41,24.41,0,0,1,8.54,20c-.12,3.46-.49,6.93-.43,10.39C3359.08,4360.19,3359.45,4375.17,3359.78,4390.15Z"
      transform="translate(-2849.18 -3127.6)" fill="#533114" />
    <path id="Path_405" data-name="Path 405"
      d="M3296.77,4183q.57-34.11,1.15-68.2h3.87c14.88,17.31,34.25,24.49,56.56,25a2.6,2.6,0,0,0,2.59,1.32q-.33,75.77-.66,151.51c-13.62-7.7-27.28-15.31-40.83-23.11a114.521,114.521,0,0,1-10-7c-8.08-5.879-12.41-13.459-11.88-23.83.5-9.87.41-19.79.26-29.69C3297.69,4200.41,3297.14,4191.72,3296.77,4183Z"
      transform="translate(-2849.18 -3127.6)" fill="#543215" />
    <path id="Path_406" data-name="Path 406"
      d="M3297.68,4038.44q.42-42.21.86-84.4c3.17,2.42,6.53,4.63,9.49,7.27,13.21,11.82,28.1,20,45.95,22.28,2.12.27,4.11,1.55,6.36,2.44.68,5.6,1.31,10.69,1.93,15.78l-1,117.42c-5.14-.3-10.46.15-15.4-1-27.88-6.6-45.63-29.23-46.94-59.09C3298.64,4052.22,3298.1,4045.33,3297.68,4038.44Z"
      transform="translate(-2849.18 -3127.6)" fill="#543215" />
    <path id="Path_407" data-name="Path 407"
      d="M3946.27,3220.27c.26,8.06.64,16.12.75,24.18.35,25.33,9.59,45.79,30.94,60.72,11.33,7.93,21.44,17.61,32.09,26.5,9.92,13.79,17.92,28.35,19.84,45.65,1.69,15.13,1.11,30.06-2.94,44.77-2.19,8-7.43,11.39-15.69,9.8-.26-13.32-.92-26.65-.69-40,.33-19-5.92-35.25-19.18-48.77a183.456,183.456,0,0,0-14-13.08c-9.81-8.1-19.88-15.88-29.85-23.79-4.18-7.68-8.66-15.22-12.47-23.08-5.67-11.74-8.67-24.22-7.89-37.33C3928,3233.32,3932.16,3223,3946.27,3220.27Z"
      transform="translate(-2849.18 -3127.6)" fill="#f8b93a" />
    <path id="Path_408" data-name="Path 408"
      d="M3296.77,4183c.37,8.68.92,17.37,1.05,26.06.15,9.9.24,19.82-.26,29.69-.53,10.37,3.8,17.95,11.88,23.83a114.544,114.544,0,0,0,10,7c13.55,7.8,27.21,15.411,40.83,23.11,2.87,3.64,5.72,7.27,8.59,10.88,9.15,11.49,13,24.36,11,39.08-2.38,17.71-8.8,33.59-20.12,47.45-.33-15-.7-30-1-44.93-.06-3.46.31-6.93.43-10.39a24.41,24.41,0,0,0-8.54-20c-3.46-3.069-6.7-6.49-10.52-9-13.91-9.22-28-18.13-43.4-24.79-2.83-3.6-5.75-7.13-8.48-10.79-10.07-13.49-15.29-28.34-11.84-45.3a202.748,202.748,0,0,1,5.82-23.42C3284.85,4193.79,3288.75,4186.67,3296.77,4183Z"
      transform="translate(-2849.18 -3127.6)" fill="#ebb242" />
    <path id="Path_409" data-name="Path 409"
      d="M3362.43,3796.86c-.51-9.69-1-19.38-1.57-29.79-2.05-.68-4.09-1.48-6.2-2a84.2,84.2,0,0,1-43.42-26.93c-3.34-3.82-6-8.65-12-9-.13-7.14-3.17-13.34-6-19.63-9.81-21.52-13.29-44.17-11.53-67.63.48-6.31,1.9-12.54,3-18.8,1.43-8.46,6.51-13.23,14.92-14.57,6.87,7.22,6.4,15.73,4.49,24.59-4.58,21.19-1.76,41.81,5.3,62,4.29,12.25,10.69,23.43,19.93,32.61s19.54,16.71,33.54,16.42c3.16,1.17,6.7,1.79,9.43,3.63,11.53,7.75,14.06,18.81,8.19,31.3C3376.53,3787.28,3369.37,3791.87,3362.43,3796.86Z"
      transform="translate(-2849.18 -3127.6)" fill="#e8b249" />
    <path id="Path_410" data-name="Path 410"
      d="M3946.57,3453.58c.53,6.34.32,12.86,1.77,19,2.83,11.92,7.66,23,16.35,32.15,13.95,14.7,27.64,29.65,41.49,44.44a32.417,32.417,0,0,0,4.11,3.19c3.24,4.06,6.81,7.9,9.67,12.21,13.43,20.22,13.4,41.15,2.55,62.36-2.37,4.64-5.59,8.82-10.94,10.59-.35-12.73-1-25.46-.93-38.19.05-7.91-1.65-14.95-6.65-21-17.61-21.49-34.31-43.83-56.2-61.41-6.22-11-14-21.17-16.34-34-.5-2.79-.48-5.68-.7-8.52q5.73-5.13-.16-10.08c1.69-10.44,2.3-11.2,10.51-13Z"
      transform="translate(-2849.18 -3127.6)" fill="#f8b938" />
    <path id="Path_411" data-name="Path 411"
      d="M3362.27,4001.81c-.62-5.09-1.25-10.18-1.93-15.78-2.25-.89-4.24-2.17-6.36-2.44-17.85-2.27-32.74-10.46-45.95-22.28-3-2.64-6.32-4.85-9.49-7.27q-4.5-9.4-9-18.78c-12.25-25.34-14.13-51.27-4-77.69,2.67-7,5.15-14.35,12.59-18.14q.43,24.48.87,48.94c.28,16.69,3.79,32.6,13.43,46.4,11.86,17,26.8,29.27,49.26,27.91,4.07,2.07,8.46,3.7,12.16,6.3,10.54,7.4,11,19.72.78,27.35C3371.14,3999,3366.43,4000,3362.27,4001.81Z"
      transform="translate(-2849.18 -3127.6)" fill="#f8b938" />
    <path id="Path_412" data-name="Path 412"
      d="M4011.68,3839c-.47-8.07-.94-16.14-1.46-25.24-3.33-1.32-6.84-3.14-10.58-4.14-16.16-4.34-29.6-13-41.21-24.87-3.2-3.28-7-6-10.52-8.94a143.461,143.461,0,0,1-18.87-51.61,72.288,72.288,0,0,1-.82-17.18c.82-9.5,3.62-12,14-14.43,1.68-.4,3.38-.72,5.07-1,.24,17.39.21,34.87,7,51.24,10.63,25.57,28,43.5,56.69,47.78,3.87,2.53,8.24,4.55,11.52,7.7,9.46,9.06,10,21.45,1.29,31C4020.32,3833.11,4015.73,3835.83,4011.68,3839Z"
      transform="translate(-2849.18 -3127.6)" fill="#f8b938" />
    <path id="Path_413" data-name="Path 413"
      d="M3947,3884.71c.31,9.86.78,19.71.89,29.57.32,28.94,16.38,52.94,43.33,63.52,6.38,2.51,13.39,3.4,20.11,5,2,1,4.32,1.74,6.07,3.12,8.21,6.44,9.18,12.47,3.26,20.7a92.012,92.012,0,0,1-6.88,7.66l-1.25.43h-1.31c.09-9.06-6.49-11.65-13.48-13.47-16.68-4.33-31.43-12-43.82-24.11a47.15,47.15,0,0,0-5.63-4.1c-4.19-7.56-9-14.85-12.46-22.71-8.44-19-8.08-38.09,1.31-56.8C3939.24,3889.36,3941.75,3885.49,3947,3884.71Z"
      transform="translate(-2849.18 -3127.6)" fill="#f8b938" />
    <path id="Path_414" data-name="Path 414"
      d="M3297.68,4038.44c.42,6.89,1,13.78,1.26,20.68,1.31,29.86,19.06,52.49,46.94,59.09,4.94,1.17,10.26.72,15.4,1,1.09.27,2.36.27,3.24.85,9.81,6.49,9.33,11.49-1.6,17.81l-4.57,2c-22.31-.54-41.68-7.72-56.56-25l-4.18-1.65c-2.58-4.55-5.22-9.06-7.71-13.65-7.65-14.1-11.86-29.05-11.12-45.22.59-12.74,2.4-14.61,15.41-15.88C3295.34,4038.37,3296.51,4038.45,3297.68,4038.44Z"
      transform="translate(-2849.18 -3127.6)" fill="#f8b938" />
    <path id="Path_415" data-name="Path 415"
      d="M3296.09,4418c.66,7.5,1.49,15,1.95,22.49.56,9.3,5.52,14.83,14.05,17.87s17.1,2.79,25.84,2.6c6.93-.15,13.86.13,20.79.24,3.17,4.17,2.49,8.45.37,12.77l-4.19,3.17c-4.93,3.57-10.67,3.8-16.41,3.89-8,.13-16,.15-24,.22l-18.61-6.78c-2-2.07-4-4.13-6-6.21-13.31-14-14.59-27.93-3.67-43.8,1.89-2.76,4.91-4.75,7.4-7.09A14.757,14.757,0,0,0,3296.09,4418Z"
      transform="translate(-2849.18 -3127.6)" fill="#f7b635" />
    <path id="Path_416" data-name="Path 416"
      d="M4216.94,4351.81l-9.33-1a100.515,100.515,0,0,1,4.74-9c2.22-3.36,5.45-6.14,7.24-9.68,4.65-9.13,1-17.34-8.5-20.9-7.15-2.66-13.62-1.29-19.86,2.68-7.3,4.63-14.66,9.16-22,13.73-.78-15.39,9.28-24.13,20.32-31.71,5.1-3.49,11.49-5.12,17.29-7.6,1.51.82,2.93,2.14,4.52,2.39,12.29,1.89,21.36,8.31,27.55,19l-.09,20.1-10.63,17.9-6.51,3.48Z"
      transform="translate(-2849.18 -3127.6)" fill="#f6b332" />
    <path id="Path_417" data-name="Path 417"
      d="M3948.28,3973.06a47.152,47.152,0,0,1,5.63,4.1c12.39,12.08,27.14,19.78,43.82,24.11,7,1.82,13.57,4.41,13.48,13.47-2,1-4.07,2.78-6.08,2.74-17.6-.32-34.09,4.47-50.44,10.22-2.1.74-4.54.53-6.82.76Q3948.08,4000.75,3948.28,3973.06Z"
      transform="translate(-2849.18 -3127.6)" fill="#5c3318" />
    <path id="Path_418" data-name="Path 418"
      d="M3361.62,3505c-1.51-1.67-3-3.33-4.53-5-11.45-13-24.77-15.84-40.45-8.57-3.07,1.42-6.16,2.77-9.23,4.15.64-2.08.69-4.66,2-6.14,15.82-17.91,47.77-10.55,53.35,14.33C3362.83,3504.07,3362,3504.58,3361.62,3505Z"
      transform="translate(-2849.18 -3127.6)" fill="#e8b249" />
    <path id="Path_419" data-name="Path 419"
      d="M2877.31,4730.14a181.9,181.9,0,0,1,48.67,17c-5.53,0-8.19.5-10.58-.08-15.26-3.66-30.46-7.54-45.65-11.46-1-.26-1.8-1.4-2.69-2.14C2870.7,4733,2874.91,4734.38,2877.31,4730.14Z"
      transform="translate(-2849.18 -3127.6)" fill="#e6e4da" />
    <path id="Path_420" data-name="Path 420"
      d="M3295.89,4474.47l18.61,6.78c-6,4.23-12.75,5.32-19.89,4.65C3295.05,4482.08,3295.47,4478.28,3295.89,4474.47Z"
      transform="translate(-2849.18 -3127.6)" fill="#5c3318" />
    <path id="Path_421" data-name="Path 421"
      d="M3930.59,3464.27q5.89,5,.16,10.08C3928.41,3471,3928.12,3467.67,3930.59,3464.27Z"
      transform="translate(-2849.18 -3127.6)" fill="#f8b93a" />
    <path id="Path_422" data-name="Path 422" d="M4302.05,4417.91c2.35-3.08,4.94-4.73,9.35-.56l-9.32,4.1Z"
      transform="translate(-2849.18 -3127.6)" fill="#e6e4da" />
    <path id="Path_423" data-name="Path 423" d="M4028.25,4016.2c-4.79,1.7-9.39,1.9-13.5-1.73Z"
      transform="translate(-2849.18 -3127.6)" fill="#c9b094" />
    <path id="Path_424" data-name="Path 424"
      d="M3946.57,3453.58l-5.47-2.31c1.89-.87,3.78-1.74,5.66-2.58C3946.7,3450.34,3946.63,3452,3946.57,3453.58Z"
      transform="translate(-2849.18 -3127.6)" fill="#f8b93a" />
    <path id="Path_425" data-name="Path 425" d="M3354.9,4477.14l4.19-3.17c.46,2.19.92,4.37,1.36,6.54Z"
      transform="translate(-2849.18 -3127.6)" fill="#ebb242" />
    <path id="Path_426" data-name="Path 426" d="M3358.35,4139.91l4.57-2-2,3.34a2.6,2.6,0,0,1-2.57-1.34Z"
      transform="translate(-2849.18 -3127.6)" fill="#ebb242" />
    <path id="Path_427" data-name="Path 427"
      d="M3296.09,4418a14.809,14.809,0,0,1-2.44-.629,3.5,3.5,0,0,1,1.87-2.79,14.48,14.48,0,0,1,1.22,2.249C3296.84,4417.11,3296.32,4417.61,3296.09,4418Z"
      transform="translate(-2849.18 -3127.6)" fill="#ebb242" />
    <path id="Path_428" data-name="Path 428" d="M3297.61,4113.24l4.18,1.65-3.87-.05-.65-.71Z"
      transform="translate(-2849.18 -3127.6)" fill="#ebb242" />
    <path id="Path_429" data-name="Path 429" d="M888,1781.43l.82-1.06-.99.9Z" fill="#c9b094" />
    <path id="Path_430" data-name="Path 430"
      d="M3152.63,4817.55l-10.58-3.59-30.48-25.13c-4.62-8-9.46-16-13.76-24.18a12.51,12.51,0,0,1-1.16-8.31c3-10.85,10.46-18.16,20.79-22,9.45-3.54,18.4-2.5,25.23,6.07-.24,10.37,5.09,17.6,13.1,23.36,3.78,2.72,7.51,5.52,11.25,8.29-12.64,11.31-18.57,25-15,42.07C3152.29,4815.25,3152.44,4816.4,3152.63,4817.55Z"
      transform="translate(-2849.18 -3127.6)" fill="#572f12" />
    <path id="Path_431" data-name="Path 431"
      d="M3142.67,4740.39c-6.83-8.57-15.78-9.61-25.23-6.07-10.33,3.86-17.78,11.17-20.79,22a12.51,12.51,0,0,0,1.16,8.31c4.3,8.22,9.14,16.15,13.76,24.18a28.669,28.669,0,0,1-23.11-4.54c-11.16-7.55-15.13-20-11.58-33.221,3.6-13.43,11.5-23.59,22.21-31.93,14.55-5.31,29.16-9.88,44.69-3.9a27.559,27.559,0,0,1,2.63,2.181C3157,4728.71,3156.52,4731.37,3142.67,4740.39Z"
      transform="translate(-2849.18 -3127.6)" fill="#f7b635" />
    <path id="Path_432" data-name="Path 432"
      d="M3143.78,4715.24c-15.53-6-30.14-1.41-44.69,3.9,2.86-4.9,5.23-10.16,8.66-14.62,8.56-11.12,18.19-13.5,31.55-8.48,1.59.6,3.06,1.5,4.59,2.26Q3143.83,4706.77,3143.78,4715.24Z"
      transform="translate(-2849.18 -3127.6)" fill="#5c3318" />
    <path id="Path_433" data-name="Path 433"
      d="M3140.55,4817.86q.93,3.42,1.88,6.84c-25.92-6.5-50.69-16.4-75.7-27,2.38-.06,4.94-.75,7.1-.1,19.47,5.9,38.87,12,58.31,18.07C3134.9,4816.52,3137.74,4817.13,3140.55,4817.86Z"
      transform="translate(-2849.18 -3127.6)" fill="#e6e4da" />
    <path id="Path_434" data-name="Path 434" d="M2974,4805.8l-8.6.79.12-2.28Z" transform="translate(-2849.18 -3127.6)"
      fill="#e6e4da" />
    <path id="Path_435" data-name="Path 435"
      d="M3939,4242.44c-22.86,2.43-44.39-3.67-66.07-8.11-8.51-1.75-11.44-7.53-8.74-15.77a52.8,52.8,0,0,1,5.85-12.69c8.43-12.76,19.21-23.43,31.06-33,6.61-5.36,14.39-5.49,21.66-2.78q22.92,8.56,45.22,18.67c6.3,2.86,11.82,7.49,17.61,11.43,7.68,5.22,10.1,13.11,8.55,21.54s-6.62,15.06-15.51,17.28a117.184,117.184,0,0,1-18.92,3.33C3952.77,4242.88,3945.72,4242.44,3939,4242.44Z"
      transform="translate(-2849.18 -3127.6)" fill="#fdf9f9" />
    <path id="Path_436" data-name="Path 436"
      d="M4160.35,4225.52c-20.32,8.62-50.73,17.39-65.73,18.32a251.473,251.473,0,0,1-28,.089c-9.93-.509-14.78-3-25.57-11.089a58.558,58.558,0,0,1,3.13-20.1c2-5.75,4.87-10.529,9.72-14.149,12.19-9.11,24.74-17.41,39-23.15,9.52-3.82,18.67-4.6,28.89-4.06,15,.78,23,10.42,30.91,20.38S4165.11,4212.82,4160.35,4225.52Z"
      transform="translate(-2849.18 -3127.6)" fill="#fdfafa" />
    <path id="Path_437" data-name="Path 437"
      d="M4008.08,4411.23l-73.39-1.14c-2.63-1-5.18-2.38-7.9-2.94-6.23-1.29-12.6-1.87-18.78-3.31-11.71-2.74-18.22-12.35-17.06-24.52.88-9.18,7.33-13.28,21-12.86,5.75.18,11.47,1.05,17.2,1.6l35.88,1.74c2.76.59,5.5,1.53,8.29,1.7,6.89.43,13.84.11,20.69.81,13.9,1.43,21.93,11.22,19.92,24.91C4013.18,4402.07,4010.09,4406.57,4008.08,4411.23Z"
      transform="translate(-2849.18 -3127.6)" fill="#572f12" />
    <path id="Path_438" data-name="Path 438"
      d="M4108.19,4396.23c-14.69,2.68-29.33,5.64-44.07,8-10.19,1.6-20.52,2.29-30.78,3.39,3.55-13.47-.5-26-4.73-38.53l46.13-7.55c4.52-.76,9-1.88,13.58-2.19,7.42-.51,14.94-1.17,22.31-.51s13.16,4.94,15.07,12.32c1.76,6.79-1.84,12.31-6.72,16.73C4115.61,4390.89,4111.8,4393.45,4108.19,4396.23Z"
      transform="translate(-2849.18 -3127.6)" fill="#572f12" />
    <path id="Path_439" data-name="Path 439"
      d="M4169.23,4327.71c7.34-4.57,14.7-9.1,22-13.73,6.24-4,12.71-5.34,19.86-2.68,9.54,3.56,13.15,11.77,8.5,20.9-1.79,3.54-5,6.32-7.24,9.68a100.9,100.9,0,0,0-4.74,9c-17.9,12.33-36.47,23.43-57.2,30.44a63.721,63.721,0,0,1-6.63,1.479c3-14.4-.52-27-10.23-38C4146.44,4341.15,4158,4334.81,4169.23,4327.71Z"
      transform="translate(-2849.18 -3127.6)" fill="#572f12" />
    <path id="Path_440" data-name="Path 440"
      d="M3803.09,4365.84l-8.72-1-14.76-14.34c-3.23-4.71-6.5-9.4-9.69-14.13-10.93-16.2-10.13-34.69,2.23-49.53,3.73-4.48,7.93-8.29,14.31-8.69,6.06-.39,9.28,3.8,12.94,7.4a11.544,11.544,0,0,1,0,3.42c-5.12,16.65,1.6,28.71,14.71,38.33C3807.22,4339.2,3801.83,4351.57,3803.09,4365.84Z"
      transform="translate(-2849.18 -3127.6)" fill="#5a3214" />
    <path id="Path_441" data-name="Path 441"
      d="M3799.4,4285.51c-3.66-3.6-6.88-7.79-12.94-7.4-6.38.4-10.58,4.21-14.31,8.69-12.36,14.84-13.16,33.33-2.23,49.53,3.19,4.73,6.46,9.42,9.69,14.13-7.68,5.87-14.9,4.83-22.14-1.06-14.6-11.87-19-27.26-15.34-45.09,3.78-18.39,13.8-33,29-44,10.86-1.87,21.58-1.87,32,2.21.82.78,1.62,1.57,2.45,2.32,4,3.69,6.22,8.12,4.4,13.56C3808.35,4283.27,3804,4284.71,3799.4,4285.51Z"
      transform="translate(-2849.18 -3127.6)" fill="#f7b635" />
    <path id="Path_442" data-name="Path 442"
      d="M3929.11,4368.06c-5.73-.55-11.45-1.42-17.2-1.6-13.63-.42-20.08,3.68-21,12.86-1.16,12.17,5.35,21.78,17.06,24.52,6.18,1.44,12.55,2,18.78,3.31,2.72.56,5.27,1.94,7.9,2.94-4,3.28-7.7,7.1-12.1,9.75-12,7.22-23.56,4.57-34.1-3.26a56.385,56.385,0,0,1-16.62-19.93c-3.86-14.17-.24-27.41,5-40.46,9.33-6.5,19.31-10.35,31-8.56a32.349,32.349,0,0,1,18.28,9.24C3929.33,4360,3930.14,4363.79,3929.11,4368.06Z"
      transform="translate(-2849.18 -3127.6)" fill="#f6b332" />
    <path id="Path_443" data-name="Path 443"
      d="M3803.09,4365.84c-1.26-14.27,4.13-26.64,11-38.58,3.09-1.58,6.16-3.19,9.26-4.75,10.27-5.16,19.29-2,27.12,4.94,2.79,2.49,4.65,6.54,5.79,10.23,1.51,4.88-.92,9-4.74,12.18l-19.82-8.12c-15.3,14-8.86,40,10.06,45.09,3.61,1,6.69,3.94,10,6l-1.5.87c-20.64,11.75-36.88,6-44.87-16C3804.09,4373.91,3803.84,4369.79,3803.09,4365.84Z"
      transform="translate(-2849.18 -3127.6)" fill="#f6b332" />
    <path id="Path_444" data-name="Path 444"
      d="M4028.61,4369c4.23,12.52,8.28,25.06,4.73,38.53-2.07,4.09-3.73,8.46-6.28,12.22-4.9,7.26-13.33,6.29-17.57-1.92-1-1.94-1-4.41-1.42-6.64,2-4.66,5.11-9.16,5.82-14,2-13.69-6-23.48-19.92-24.91-6.85-.7-13.8-.38-20.69-.81-2.79-.17-5.53-1.11-8.29-1.7C3978,4351.73,4014.1,4349.18,4028.61,4369Z"
      transform="translate(-2849.18 -3127.6)" fill="#f6b332" />
    <path id="Path_445" data-name="Path 445"
      d="M4133.55,4344.74c9.71,11,13.24,23.62,10.23,38-4.12,6.37-8.55,12.27-16.08,15.19-6.92,2.7-13.41,3.5-19.51-1.72,3.61-2.78,7.42-5.34,10.79-8.39,4.88-4.42,8.48-9.94,6.72-16.73-1.91-7.38-7.75-11.67-15.07-12.32s-14.89,0-22.31.51c-4.56.31-9.06,1.43-13.58,2.19-.4-8.32,6.25-12,11.32-16.42a30.214,30.214,0,0,1,19.08-7.391C4115.38,4337.24,4124.45,4340.92,4133.55,4344.74Z"
      transform="translate(-2849.18 -3127.6)" fill="#f6b332" />
    <path id="Path_446" data-name="Path 446"
      d="M3851.81,4392.82c-3.32-2-6.4-5-10-6-18.92-5.1-25.36-31.1-10.06-45.09l19.82,8.12a67.317,67.317,0,0,0,25.29,6.31c-5.22,13.07-8.84,26.31-5,40.48Z"
      transform="translate(-2849.18 -3127.6)" fill="#5a3214" />
    <path id="Path_447" data-name="Path 447"
      d="M4203.81,4243.07l15.28-8.15c15.81-8.43,36.36,4.91,40.19,22.45,1.68,7.73.77,16.27-.27,24.28-.79,6.07-4.47,10.88-11.94,10.16-.28-6.84-.2-13.72-.94-20.52-.88-8.1-5.88-13.66-13.24-16.54-7.55-2.95-13.27,1.22-18.12,6.44-2.7,2.92-4.81,6.37-7.19,9.58-9.88-3-12.89-6.39-10.7-13.88C4198.3,4252,4201.44,4247.66,4203.81,4243.07Z"
      transform="translate(-2849.18 -3127.6)" fill="#f7b635" />
    <path id="Path_448" data-name="Path 448"
      d="M4207.58,4270.77c2.38-3.21,4.49-6.66,7.19-9.58,4.85-5.22,10.57-9.39,18.12-6.44,7.36,2.88,12.36,8.44,13.24,16.54.74,6.8.66,13.68.94,20.52-2.42,6.12-2.18,13.45-8.16,18-6.19-10.67-15.26-17.09-27.55-19-1.59-.25-3-1.57-4.52-2.39Q4207.22,4279.58,4207.58,4270.77Z"
      transform="translate(-2849.18 -3127.6)" fill="#5a3214" />
    <path id="Path_449" data-name="Path 449"
      d="M3803.14,4262.5c-10.44-4.08-21.16-4.08-32-2.21,1.36-2.5,2.46-5.2,4.13-7.47,5.95-8.1,13.78-11.81,23.94-9.52,2.24.5,4.49.95,6.71,1.45Q3804.5,4253.65,3803.14,4262.5Z"
      transform="translate(-2849.18 -3127.6)" fill="#5c3318" />
    <path id="Path_450" data-name="Path 450"
      d="M3533.31,4810.26c-8.43,3.76-16.9,7.45-25.28,11.32a187.266,187.266,0,0,1-44.35,14.61c-5-.75-11.36.8-13.14-6-3.62-13.88-12-25.11-19.65-36.77,16.94-3.85,34.05-7,50.06-14.17,3.83.14,7.6.05,10.34-3.28,3.7-1.61,7.4-3.25,11.13-4.83,19.36-8.24,35.28-3.11,45.86,15,1.7,2.92,2.4,6.43,3.56,9.67Z"
      transform="translate(-2849.18 -3127.6)" fill="#572f12" />
    <path id="Path_451" data-name="Path 451"
      d="M3532.66,4747.32q.72-10.12,1.45-20.24c2-2.83,4-5.63,6-8.51,9.12-13.6,28.74-16.49,38.72,4.46,2.92,6.14,3.58,13.36,5.27,20.09-2,13.28-6.43,25.43-16.07,35.22C3559.53,4764.25,3547.54,4754.13,3532.66,4747.32Z"
      transform="translate(-2849.18 -3127.6)" fill="#5a3214" />
    <path id="Path_452" data-name="Path 452"
      d="M3532.66,4747.32c14.88,6.81,26.87,16.93,35.35,31,0,4,.56,8.11-.26,11.93-2.1,9.65-5.79,10.79-15.92,5.57-1.15-3.25-1.85-6.76-3.55-9.68-10.58-18.13-26.5-23.26-45.86-15-3.73,1.58-7.43,3.22-11.13,4.82l-10.28-.44c2-4.7,3.33-9.87,6.15-14,8.87-13.05,21.5-18.22,37.13-15.85C3527.1,4746.06,3529.87,4746.75,3532.66,4747.32Z"
      transform="translate(-2849.18 -3127.6)" fill="#f6b332" />
    <path id="Path_453" data-name="Path 453"
      d="M3584.08,4743.12c-1.69-6.73-2.35-13.95-5.27-20.09-10-20.95-29.6-18.06-38.72-4.46-1.94,2.88-4,5.68-6,8.51-1.31-3-3.45-6-3.75-9.12-.61-6.25-.21-12.61-.23-18.92,3.78-2.61,7.35-5.62,11.37-7.79,23.92-12.92,50.93,2.6,52.05,29.74C3593.92,4729.91,3593.78,4738.54,3584.08,4743.12Z"
      transform="translate(-2849.18 -3127.6)" fill="#f6b332" />
    <path id="Path_454" data-name="Path 454"
      d="M3571.62,4862.65a50.356,50.356,0,0,1,22.69-10.08c-7.18,8.41-13.58,11.18-20.87,12.45C3572.88,4864.22,3572.27,4863.42,3571.62,4862.65Z"
      transform="translate(-2849.18 -3127.6)" fill="#fff" />
    <path id="Path_455" data-name="Path 455"
      d="M3627.51,4865.88l12.75-7.12c-2.6,6.7-2.6,6.7-10.55,9.82C3629,4867.67,3628.26,4866.77,3627.51,4865.88Z"
      transform="translate(-2849.18 -3127.6)" fill="#fff" />
    <path id="Path_456" data-name="Path 456" d="M3638,4897.4l12.75-6.95c-2.6,6.68-2.6,6.68-10.48,9.72Z"
      transform="translate(-2849.18 -3127.6)" fill="#fff" />
    <path id="Path_457" data-name="Path 457" d="M3696,4924l-12.7,6.8c2.49-6.54,2.49-6.54,10.33-9.66Z"
      transform="translate(-2849.18 -3127.6)" fill="#fff" />
    <path id="Path_458" data-name="Path 458"
      d="M3682.07,4896.07c-2.73,2.41-4.77,6.3-10.28,4.33,1.29-4.28,4.81-5.38,8.26-6.56C3680.71,4894.59,3681.38,4895.34,3682.07,4896.07Z"
      transform="translate(-2849.18 -3127.6)" fill="#fff" />
    <path id="Path_459" data-name="Path 459"
      d="M3627.35,4942.87c.83-.62,1.62-1.67,2.51-1.76a15.18,15.18,0,0,1,4.09.67c-.95,1.07-1.86,2.17-2.87,3.17a4.644,4.644,0,0,1-1.43.63Z"
      transform="translate(-2849.18 -3127.6)" fill="#fff" />
    <path id="Path_460" data-name="Path 460" d="M3666.15,4959.75c-.4.31-.8.85-1.16.82s-.68-.61-1-.95Z"
      transform="translate(-2849.18 -3127.6)" fill="#fff" />
    <path id="Path_461" data-name="Path 461"
      d="M3264.92,4709.85c-13.88-1.43-27.87-2.21-41.6-4.5a30.489,30.489,0,0,1-23.67-18.69c-5.24-12.4-2.94-24.13,6.55-33.9,7.85-8.07,17.47-13.59,28-17.38a27.8,27.8,0,0,1,18.87-.07c12.69,4.28,25.53,8.13,38.22,12.42,19.4,6.56,31.79,29.2,27.07,49a10.26,10.26,0,0,1-8.22,8.149,189.556,189.556,0,0,1-22.38,3.71c-7.54.63-15.17.14-22.76.14A5.106,5.106,0,0,1,3264.92,4709.85Z"
      transform="translate(-2849.18 -3127.6)" fill="#fdf8f8" />
    <path id="Path_462" data-name="Path 462"
      d="M3316.1,4852.28c-22.14,1.17-43.84-2.7-65.62-5.69-13.19-1.81-26.37-3.7-39.56-5.55-2.81-1.78-5.41-4.26-8.48-5.24a56.868,56.868,0,0,1-22.17-13.14c-7.3-6.9-11-14.9-7.49-24.911,2.84-8,11.43-12.43,22.92-11.82,4,.22,8,1.25,12,1.85,2.84.43,5.69.77,8.54,1.15,14.13,4.94,28.58,8.27,43.61,8.73,6.63,2,13.23,4.19,19.93,6,12.65,3.35,21.54,11.44,27.85,22.38C3312.25,4834.06,3316.13,4842.59,3316.1,4852.28Z"
      transform="translate(-2849.18 -3127.6)" fill="#562f12" />
    <path id="Path_463" data-name="Path 463"
      d="M3405,4705.55c-7,0-14,.19-20.93-.06-4.58-.17-7.27-3.16-8.76-7.32-2.31-6.45-1.11-12.83,1.61-18.62,3.74-7.95,9-14.89,16.83-19.53,10-5.94,20.38-11.32,29.77-18.09,15.62-11.26,44.44-2.64,54.49,8.66,9.63,10.83,8.83,27.66-2.47,37-9.91,8.16-20.1,15.05-34.18,15.06-12.08,0-24.16,2.7-36.24,4.21Z"
      transform="translate(-2849.18 -3127.6)" fill="#fdf9f9" />
    <path id="Path_464" data-name="Path 464"
      d="M3430.77,4844.59l-66.16,7.93c-5.51-5-12.28-2.19-18.46-2.88-5.23-.59-9-2.78-10.31-7.9-3.63-13.68-10.7-25.77-17.31-38.08l54.52-1.38c5.71-.33,11.42-.68,17.13-1,12.3-.69,22.44,3.61,30.23,13.18a44.118,44.118,0,0,1,10.36,30.129Z"
      transform="translate(-2849.18 -3127.6)" fill="#562f12" />
    <path id="Path_465" data-name="Path 465"
      d="M3318.53,4803.66c6.61,12.31,13.68,24.4,17.31,38.08,1.36,5.12,5.08,7.31,10.31,7.9,6.18.69,12.95-2.07,18.46,2.88-.78.85-1.62,1.65-2.31,2.57-12.76,16.95-27.18,17.82-41.73,2.46-1.58-1.67-3-3.51-4.47-5.27,0-9.69-3.85-18.22-8.51-26.28-6.31-10.94-15.2-19-27.85-22.38-6.7-1.77-13.3-4-19.93-6,.24-4.19,1.42-8,5.22-10.31,5.58-3.44,11.73-5.11,18.18-3.74,9.62,2,18.91,5,26.3,12.09C3312.41,4798.46,3315.52,4801,3318.53,4803.66Z"
      transform="translate(-2849.18 -3127.6)" fill="#f6b332" />
    <path id="Path_466" data-name="Path 466"
      d="M3430.77,4844.59a44.12,44.12,0,0,0-10.36-30.13c-7.79-9.57-17.93-13.87-30.23-13.18-5.71.32-11.42.67-17.13,1-4.84-8.54-4.27-12.9,3-17,13.76-7.77,27.71-7.26,41.47.09,4.59,2.45,8.94,5.35,13.39,8.05,7.66,11.66,16,22.89,19.64,36.77,1.78,6.8,8.16,5.25,13.14,6-1.79,6.76-5,12.53-11,16.47-6.61,4.3-10.68,4.13-16.64-1.42C3434,4849.34,3432.5,4846.82,3430.77,4844.59Z"
      transform="translate(-2849.18 -3127.6)" fill="#f6b332" />
    <path id="Path_467" data-name="Path 467"
      d="M3216.2,4788.93c-2.85-.38-5.7-.72-8.54-1.15-4-.6-7.95-1.63-12-1.85-11.49-.61-20.08,3.79-22.92,11.82-3.52,10,.19,18,7.49,24.91a56.872,56.872,0,0,0,22.17,13.14c3.07,1,5.67,3.46,8.48,5.24-9.16,3.48-18.22,6.24-28.31,3-7.34-2.35-13.77-5.71-18.68-11.53-4-4.77-7.57-9.95-11.31-15-.18-1.15-.33-2.3-.57-3.44-3.6-17.07,2.33-30.76,15-42.07,12.83-6.51,25.66-6.7,38,.88C3210.84,4776.5,3217.09,4780.39,3216.2,4788.93Z"
      transform="translate(-2849.18 -3127.6)" fill="#f6b332" />
    <path id="Path_468" data-name="Path 468" d="M3481,4775.52l10.28.44c-2.74,3.34-6.51,3.43-10.34,3.29Z"
      transform="translate(-2849.18 -3127.6)" fill="#d3342a" />
    <path id="Path_469" data-name="Path 469"
      d="M4228.19,4347.77l10.63-17.9c19.71-7.2,39.4-14.46,59.15-21.54,7-2.51,13.67-6.49,22-5.87-.61,1.6-.71,3-1.31,3.25Q4273.44,4326.81,4228.19,4347.77Z"
      transform="translate(-2849.18 -3127.6)" fill="#f4f2eb" />
    <path id="Path_470" data-name="Path 470" d="M4305.39,4445.86c2.26-2.83,4.86-4.21,9.42-1.37l-6,4.67Z"
      transform="translate(-2849.18 -3127.6)" fill="#e6e4da" />
    <path id="Path_471" data-name="Path 471" d="M4305.39,4445.86l3.44,3.3-5.42,2-2.35-2.73Z"
      transform="translate(-2849.18 -3127.6)" fill="#fff" />
    <path id="Path_472" data-name="Path 472"
      d="M4343.6,4386.05l-.69-2.23a18.058,18.058,0,0,1,2.84-.18c.25,0,.44.77.66,1.19Z"
      transform="translate(-2849.18 -3127.6)" fill="#fff" />
    <path id="Path_473" data-name="Path 473"
      d="M4335.81,4349.2c-.74.55-1.43,1.41-2.22,1.52-.49.07-1.14-1-1.71-1.59.4-.33.87-1,1.2-.93a15.751,15.751,0,0,1,2.73,1Z"
      transform="translate(-2849.18 -3127.6)" fill="#fff" />
    <path id="Path_474" data-name="Path 474"
      d="M3767.87,4369.85l-8.29-2.31c4.37-3.61,7.16-1.94,9.86.42C3768.92,4368.58,3768.39,4369.21,3767.87,4369.85Z"
      transform="translate(-2849.18 -3127.6)" fill="#fff" />
  </g>
</svg>
