<svg id="Layer_1" data-name="Layer 1" xmlns="http://www.w3.org/2000/svg" viewBox="0 0 3671.63 1136.4">
  <defs>
    <style>
      .cls-1 {
        fill: #fff;
      }
    </style>
  </defs>
  <path class="cls-1"
    d="M3715.48,2831.8c-1.69.44-4,.34-5,1.44-2.91,3.29-5.28,7.05-7.88,10.62a143.6,143.6,0,0,1-27.27,28.76c-11.35,9-23.92,15.31-38.39,17.5-21.66,3.28-38.6-4.08-50.27-22.7-10.39-16.56-15.15-35-17-54.27-.45-4.7.1-9.61-2.41-15.75-3,3.62-5.19,6-7.09,8.48-8.56,11.37-16.67,23.09-25.68,34.08-6.2,7.55-13.4,14.33-20.55,21a61.15,61.15,0,0,1-21.25,12.89c-22.19,8-43.8.52-56.14-19.54-8.39-13.66-12.3-28.83-13.78-44.61-2.57-27.46,1-53.93,14.11-78.55,7.15-13.41,14.5-26.73,22.26-39.78,7.27-12.23,15.3-24,22.81-36.08,6.08-9.79,9.77-20.3,8.87-32.08-1.09-14.12-10.38-20.09-23.48-14.25a54,54,0,0,0-15.79,10.51c-10.78,10.69-21.75,21.41-31,33.37a725.46,725.46,0,0,0-103.8,183.93c-1.57,4.08-3.09,8.18-4.54,12-11.35,2.06-57.11,2.84-73.18,1.21.51-2.72.61-5.52,1.56-8,4.1-10.51,8.47-20.91,12.7-31.37,1.45-3.57,2.77-7.18,4.17-10.84-5-1.13-5.65,3-7.57,5-10.66,11.51-20.76,23.55-31.81,34.66-9.9,10-22.28,15.81-36.25,18.25-23.48,4.11-41.6-5.37-51-27.5-7.65-18-9.14-37-7.21-56.34.47-4.68,1-9.36,1.7-16.13-5.89,4.16-8.23,8.49-11.06,12.28-14.72,19.73-30.67,38.35-49.73,54a189.24,189.24,0,0,1-21.36,15.61,91.49,91.49,0,0,1-51.89,13.61c-17.77-.61-30.88-8.54-39.24-24.18-5.64-10.53-9.1-21.84-9.39-33.75-.26-11.25.58-22.53,1-33.79.06-1.72.29-3.43.71-8.25-3.71,4.53-5.55,6.61-7.21,8.84-10.87,14.53-21.26,29.46-32.69,43.54a296.84,296.84,0,0,1-26.28,27.76c-10.94,10.4-24.28,16.36-39.29,18.57-20.73,3.05-36.89-5.24-45.69-24.19-7.64-16.43-9-34-8.06-51.82.26-4.85.8-9.69,1.39-16.65-3.23,2.63-5.16,3.84-6.66,5.45-9,9.72-17.57,19.86-26.9,29.24a230.16,230.16,0,0,1-58.06,42.32c-28.55,14.73-59,21-91,19.87-33.23-1.19-55.15-18.07-65.05-49.84-1.13-3.62-2.31-7.24-3.87-12.14-3.81,4-6.91,7-9.72,10.26a295.1,295.1,0,0,1-36.76,36c-14.32,11.66-30.34,19.9-48.68,23a84.65,84.65,0,0,1-17.55,1.21c-13.09-.57-23.47-6.45-30.69-17.51-6.55-10.06-10.14-21.19-11.65-33-2.15-16.92-1.65-29.62,2.24-55.76-2.4,2.18-4.18,3.32-5.32,4.92-7.94,11.2-15.56,22.64-23.66,33.74a329.05,329.05,0,0,1-47.32,52.32c-13,11.54-27.4,20.78-44.51,24.87a114,114,0,0,1-20.29,2.94c-16.41.87-28.15-6.75-35.84-21-6.65-12.34-9.73-25.67-10.5-39.51-.71-12.74-.75-25.51,1.82-38.14.67-3.3.72-6.72,1.07-10.21-5-.16-5.83,3.85-7.75,6.3-15.16,19.28-29.85,38.94-45.38,57.91a223,223,0,0,1-38.08,36.73c-18.75,14.18-39.56,23.61-63,26.66a88.07,88.07,0,0,1-20.51.6c-18.72-2-33.15-11.3-43.23-27.25-8-12.65-12.56-26.63-14.73-41.29-1.57-10.65-2.07-21.46-3-32.21-.22-2.39-.31-4.8-.45-7.12-4.53-.88-5,2.71-6.32,5-12.22,20.69-24,41.64-36.68,62.07-6.44,10.39-14.08,20.08-21.68,29.69a130.35,130.35,0,0,1-15.22,15.95,87.57,87.57,0,0,1-15.42,11.2c-21.23,11.9-37.55,7-48.89-14.56-7-13.24-10.06-27.65-11.37-42.38-2.87-32.23.32-63.77,12.67-93.93q10-24.49,21.21-48.51c7.26-15.56,15.33-30.73,22.86-46.16,5-10.22,8.67-20.88,8.22-32.48a35.32,35.32,0,0,0-1.51-10.12c-1.56-4.46-5-7.63-10-7-4.27.51-9,1.29-12.47,3.52a109.9,109.9,0,0,0-17.21,13.68c-11.72,11.27-21.31,24.34-30.38,37.8-23.1,34.33-41.58,71.14-57.88,109.06-18.24,42.4-34,85.72-45.4,130.51-.61,2.37-1.49,4.67-2.47,7.67-11.12,5.71-24.07,6.35-36.24,9.63-11.81,3.18-23.86,5.47-35.73,8.13-3.66-3.93-1.22-7.7-.17-11.16q16-52.8,32.25-105.53c1.41-4.58,2.9-9.14,5-15.62-6.33,4.59-8.24,9.73-11.23,14-16.86,24.12-33.34,48.52-50.61,72.35a243.54,243.54,0,0,1-43.13,46.15c-5.67,4.63-8.64,9.93-10.31,17q-17.77,75.2-40.77,149c-22,70.25-46.72,139.53-77,206.73-15.51,34.48-32.48,68.21-52.61,100.28-11.49,18.32-23.89,36-38.53,52-9.3,10.16-19.35,19.49-31,27a87.65,87.65,0,0,1-29.54,12.78c-21.21,4.58-39.86-.14-55.58-15.4-9.63-9.35-16.78-20.44-22.56-32.47-9.62-20-15.95-41.2-20.06-62.93-9-47.53-10.66-95.49-7.42-143.69,1.85-27.49,5.4-54.69,13.15-81.2,4.69-16.06,10.7-31.58,19.37-46,16.24-27,39-44.93,70.28-51.4,10.45-2.17,20.88-4.43,31.35-6.65,2.59,5.67,2.43,10.29.12,15.65-2.6.68-5.35,1.51-8.15,2.12-13.19,2.9-22.93,10.67-30.53,21.49-6.55,9.32-11.1,19.62-14.85,30.3-6,17.23-9.49,35.07-11.41,53.13a814.45,814.45,0,0,0-1,155.82c2.19,25.48,5.83,50.69,12.61,75.37,3.39,12.32,7.39,24.5,14.09,35.46a84.86,84.86,0,0,0,12.56,16.14c5.66,5.58,12.88,6.53,20.53,3.73a38.44,38.44,0,0,0,16.77-11.59c7.12-8.71,14.14-17.63,20-27.21,10.48-17.22,18-35.92,25-54.82,19.65-53.46,35.59-108.07,49.85-163.16,18.19-70.27,35.3-140.84,56.17-210.38,11.7-39,24-77.77,36.08-116.65a5.84,5.84,0,0,0-.14-4.37c-2.42,4.63-4.9,9.24-7.27,13.9-8.25,16.2-17.24,31.95-28.2,46.5-8,10.63-16.72,20.59-27.24,28.81a72.91,72.91,0,0,1-27.38,13.77c-11.77,3-21.63-.15-29.09-9.16a84.63,84.63,0,0,1-11.3-18.77,136,136,0,0,1-11.25-44c-1.6-17.07-2.93-34.28-2.63-51.4.88-50.6,11-99.34,31.94-145.61,10.58-23.38,23.81-45.11,40.9-64.37,11.8-13.3,25-25,40.25-34.18,16.66-10.08,34.53-16.36,54.25-16.27,20.5.1,35.92,8.51,44.77,27.58,1.84,4,3.85,7.85,6.38,13,7.74-10.71,7.73-23.77,15.27-33.94l73.22-6.89c.17,7.27-3.22,12.28-5.4,17.53-26,62.54-49.95,125.83-70.82,190.25-10.58,32.66-20.32,65.58-30.35,98.42-1.39,4.52-2.23,9.22-3.93,16.41,5.12-4.1,8.47-6.15,11-8.93,11.3-12.27,23-24.26,33.41-37.22,27.17-33.69,50.24-70.21,72-107.55a101.49,101.49,0,0,0,7.54-17.51c43-122.46,95-240.89,158.09-354.37,2.61-4.69,5.27-9.36,8.21-14.57l76.24-6c.64,6.26-3.17,9.9-5.39,14.09-23.15,43.8-47.12,87.19-69.48,131.39-32.77,64.81-62,131.3-89.74,198.4-2,4.86-5.46,9.48-4.24,15.29-1.73,1.28-3.45,2.56-5.11,3.91.24,1.57.41,3.08.58,4.58l1.39-.51c-.74-1.4-1.47-2.81-2.21-4.22,3,.34,5.85.43,5.08-4,5.35-2.71,6.18-8.51,8.53-13.1,10.54-20.54,21.65-40.71,34.85-59.68,10.12-14.53,20.86-28.57,33.79-40.72a278.1,278.1,0,0,1,21.28-18.1,75.18,75.18,0,0,1,33.45-14.45c25.78-4.4,46.88,10.66,51.25,36.32,3.47,20.35,1.16,40.32-5.47,59.5-6.87,19.9-15,39.38-23.25,58.79-9.54,22.58-20.18,44.71-29.49,67.39a244,244,0,0,0-11.35,36.43c-1.77,7.51-1.46,15.57-1.49,23.39a26.77,26.77,0,0,0,2.43,9.87c2.19,5.28,6.43,7.24,12,5.31a31.67,31.67,0,0,0,10.21-5.52,88.59,88.59,0,0,0,13.28-13.69c8.51-11.38,17-22.84,24.47-34.93,10.8-17.53,20.61-35.67,31-53.48,5.47-9.44,8.26-19.49,10.45-30.27,13.6-66.86,50-117.36,110.34-150a129.64,129.64,0,0,1,46-14.72,92.25,92.25,0,0,1,44.87,5.11c16.46,6.29,24.61,18.41,25.16,36.09s-5.68,32.65-17.38,45.51A192.13,192.13,0,0,1,2135,2706a361.58,361.58,0,0,1-57.44,29.65c-10,4.07-20,8-30,12.13-3.58,1.47-7.06,3.19-10.91,5-2,7.85-2,15.71-2.45,23.46a183,183,0,0,0,4.24,51.17,64.1,64.1,0,0,0,9.84,22.84c9.28,13.12,21.89,18.18,37.24,13.59a77.51,77.51,0,0,0,22.41-10.65,176.43,176.43,0,0,0,25.5-22.1c26.48-27.78,49.52-58.34,70.85-90.19a55.86,55.86,0,0,0,5.81-11.81c13.32-36.42,28.72-72,44.66-107.29,1.73-3.85,5.08-7.43,3.24-13.22h-40.33l3.54-10.82,44.62-1,47-93.62c25.31-1.36,49.61-4,74.83-3.1-.82,7.84-5.44,13.18-8.3,19.19-2.94,6.2-6.35,12.17-9.53,18.26s-6.35,12.18-9.47,18.3-6.24,12.24-9.29,18.39-6,12.26-9.44,19.31c2.2.83,3.84,2,5.47,2,33.84-.46,67.68-1,102.42-1.63,1.79-3,4-6.11,5.68-9.49,11.59-22.73,23.06-45.51,34.62-68.25,2.21-4.35,4.67-8.57,6.79-12.44,12-3.35,57.06-5.6,73.56-3.81,2.8,3.7-.36,6.46-1.79,9.22-11.72,22.65-23.64,45.21-35.44,67.82-2.24,4.3-4.23,8.74-6.87,14.23,3.57.88,6.15,2.05,8.73,2.05,17.18,0,34.36-.27,51.53-.33,3.76,0,7.52.53,11.1.8,1,5.57-.43,8.82-5.47,9.24-3.9.33-7.84.16-11.77.2l-58.92.63c-1.46,1.84-2.92,3.18-3.77,4.84-22.94,45-45.5,90.24-62.62,137.9-5.81,16.16-11.66,32.36-14.31,49.4a189.41,189.41,0,0,0-1.7,24.88,27.32,27.32,0,0,0,2,10c2.68,7.13,8,11.21,15.75,10.87,4.34-.19,9-.52,12.87-2.28a112.52,112.52,0,0,0,20.31-11.58c15.46-11.48,28.12-25.87,40.4-40.6a18.73,18.73,0,0,0,4.52-12.06,147.82,147.82,0,0,1,1.5-17.59,55.28,55.28,0,0,1,12.39-27.88c8.34-9.92,18.79-15.57,32.66-15.35,8.87-11.57,16.48-24.11,24.14-36.58,1.63-2.66,1.58-6.5,1.81-9.83.43-6.35-.22-12.85.87-19.06,6.07-34.43,26.91-56,59.89-65.66a115.62,115.62,0,0,1,64-.08,80,80,0,0,1,22.5,10.48c24.36,16.16,21.34,54.06,3,69.59-12.46,10.53-27.61,10.75-43.6-.24,1.13-3.44,2.34-7.07,3.52-10.71,5.69-17.53,5.18-34.88-2.47-51.68-4.95-10.85-13.45-14.91-25.27-13.07s-17.47,10.21-20.53,20.59c-4.33,14.69-2.76,29.16,3.38,43.1a91.52,91.52,0,0,0,5.59,10.36c4.84,8,9.88,15.81,14.74,23.76s9.59,16,14.38,24c13.38,22.36,14.46,46.37,9.5,71.17-3,14.83-10,27.56-19.95,38.8-2.76,3.12-5.54,6.21-10.4,11.66,4.85-1.52,6.7-1.85,8.31-2.65a181,181,0,0,0,37.57-25.67,398.45,398.45,0,0,0,55.91-60.4,54.34,54.34,0,0,0,6.48-11.43c8.29-19.38,15.88-39.07,24.64-58.23,10.82-23.63,22.51-46.86,33.9-70.23,2.12-4.37,4.57-8.57,7.15-13.38l76.18-2.21c-.68,3-.72,5.36-1.69,7.22-9.79,18.69-19.82,37.24-29.6,55.94-18.42,35.23-35.86,70.93-49.24,108.44-3.45,9.68-6.76,19.53-8.75,29.58-1.7,8.55-1.76,17.5-1.83,26.28,0,3.76,1.34,7.72,2.83,11.27,2.09,5,6.71,7.29,12,6.36a34.11,34.11,0,0,0,17.15-8c7.29-6.55,14.67-13.08,21.25-20.31,20.22-22.24,36.38-47.48,52.41-72.77a44.88,44.88,0,0,0,3.68-8c13.67-35.78,29.9-70.42,46.46-104.92,2.07-4.32,3.81-8.79,6-13.9-7.55-2.46-14.38-1.15-21-1.49-6.32-.32-12.66-.28-18.85-.39-.66-9.11,0-10.31,6.5-10.47,8.33-.21,16.68,0,25,0,4.84,0,9.67-.27,14.9-.43,16.19-30.09,30.44-60.75,47-89.43,19.21-2.3,64.82-3.16,74.87-1.31-2.84,8-7.55,14.83-11.25,22.12-4,7.88-8.3,15.59-12.43,23.39-3.89,7.38-7.83,14.73-11.55,22.2-3.64,7.29-8.53,14.09-10.15,22.8,8.42,1.92,16.27,1,24,1.28s15.71.25,23.55.56,15.54-.42,24,1.33c-.84,3.22-1.41,5.44-2.23,8.55-25.51,1.51-50.91-.47-75.52.56a19.89,19.89,0,0,0-2.61,2.86c-24.4,47-48.7,94.11-66.62,144.14-5.13,14.34-10.09,28.77-11.83,43.95a83.22,83.22,0,0,0,.22,23.33c1.92,10.95,8.86,15.62,19.85,15.75a41.35,41.35,0,0,0,24.84-8,272.16,272.16,0,0,0,28.62-23c21.17-20,38.08-43.54,54.44-67.47,2.17-3.19,3.58-6.95,5-10.58,17.59-44.27,38.79-86.87,60-129.44a17.63,17.63,0,0,1,1.69-2.37c11.32-2.25,59.17-3.95,77.05-2.63-.84,2.83-1.23,5.66-2.46,8.05-10.12,19.62-20.49,39.12-30.61,58.73-17.55,34-34,68.56-46.84,104.69-3.44,9.69-6.31,19.6-9.05,29.52a76.94,76.94,0,0,0-2,30.66,38.67,38.67,0,0,0,2.57,9.88c2.4,5.67,7.05,8.37,13,7a44.8,44.8,0,0,0,13.46-5.51,87.49,87.49,0,0,0,13.66-11.12c18.11-17.5,32.79-37.76,46.32-58.87,2.62-4.09,4.26-8.81,6.29-13.26q32.11-70.26,64.23-140.52c2.22-4.85,4.85-9.51,7.08-13.86,19.41-2.58,61.27-4.14,76.38-2.79-.81,2.38-1.2,4.75-2.34,6.68-22.11,37.67-42.88,76.06-61.87,115.4-.8,1.67-2.42,2.94-3.61,4.46-.81,2-1.68,4-2.52,6,.29.32.66.6.76,1s-.25.58-.4.87l-.1-1.95c4.51-.7,3.49-3.3,2.06-6l3.07.84c2.69-.23,3.54-2.79,4.79-4.72,6.67-10.29,13.18-20.69,19.85-31a403.86,403.86,0,0,1,39.34-51.36c12.22-13.52,25.6-25.73,40.83-35.83,13.53-9,28.22-13.3,44.6-11.58,20.81,2.18,36.43,15.91,41.07,36.35,5,22,1.24,43.12-7.38,63.27-8.1,18.91-17.64,37.21-26.73,55.69-8.43,17.16-17.16,34.18-25.66,51.32a112,112,0,0,0-10,32.2c-1.18,7.32-1.26,14.64,1.36,21.8,3.53,9.69,10,12.95,19.58,8.73a51.44,51.44,0,0,0,13.48-8.7,133.32,133.32,0,0,0,15.05-16.1c8-10,15.34-20.38,23.12-30.48,9.11-11.83,16.55-24.27,16-39.95,8.17-48.88,29-91.33,64.46-126.24,14.81-14.59,31.66-26.43,50.93-34.37,18.38-7.57,37.36-11.62,57.45-7.93,16,2.93,28.1,10.94,35.7,25.48,2.2,4.23,4.48,8.41,7.38,13.85,6.71-9.47,8.1-20.05,13.4-28.6,12.29-2.4,61-4.1,74.86-2.55.1,5.62-3.08,10.16-5.2,14.95-27.41,61.88-53.83,124.18-77.8,187.5-8,21.09-15.65,42.3-23.38,63.49-.94,2.59-1.37,5.36-2.51,9.92,3.94-1.49,6.13-2.05,8.06-3.1a181,181,0,0,0,34.44-25c24.89-22.5,45.87-48.38,65.27-75.63,2.94-4.12,4.25-8.63,5.19-13.54,4.55-23.74,12-46.51,23.5-67.86,15.87-29.56,37.48-53.78,66.13-71.59,20.54-12.77,42.9-19,66.94-19.48a100.61,100.61,0,0,1,11.74.77c13.76,1.31,24.22,8.21,30.63,20.17,4.82,9,8.17,18.75,12.53,29,1-1.05,2.57-2.07,3.12-3.49,3-7.78,5.66-15.69,8.58-23.49,1-2.69,2.45-5.22,3.53-7.5,15.55-1.92,63.94-1.58,75.33.5,1.1,4.2-1.83,7.34-3.39,10.7-11.6,24.89-23.78,49.52-35,74.6-20.61,46.19-38.59,93.37-50.08,142.76-2.88,12.4-4.92,25-6.63,37.64-1.45,10.72-1.4,21.58,1.54,32.15a34,34,0,0,0,4,9.36,10.29,10.29,0,0,0,12.93,4,43.5,43.5,0,0,0,12.35-7.67,126.36,126.36,0,0,0,14.51-16.56c17.56-23.73,32-49.38,45.53-75.54a94.74,94.74,0,0,0,5.26-13.7c19.86-59.56,41-118.65,64.41-176.91,1.81-4.51,3.82-8.93,5.56-13,11.59-1.94,63.07-2.88,75.66-1.45,1.7,4.73-1.69,8.21-3.45,11.9q-28.55,59.77-52.4,121.57c-3.87,10.06-7.48,20.22-11.15,30.38-.3.82-.71,1.57-1,2.37-.1.31.12.72.19,1.09.44-.49,1.23-1,1.23-1.48a7.08,7.08,0,0,0-.82-2.33c1.27-.48,3.16-.59,3.68-1.5,2.45-4.23,4.56-8.67,6.72-13.06,12.13-24.66,24.15-49.37,38.83-72.66,13.1-20.81,27.14-41,45.18-57.86a180.05,180.05,0,0,1,24.27-18.95,44.89,44.89,0,0,1,29.53-7.05c19.35,2,32.61,12.59,40.49,30,4.49,9.93,6.26,20.6,6.87,31.46,1.23,21.8-1,43.26-7.84,63.94-8.28,25.14-17.46,50-26.45,74.9-8.65,24-17.9,47.76-26.23,71.86-7.1,20.51-11.6,41.67-10.25,63.55a82.52,82.52,0,0,0,4.16,21.52c2.83,8.22,10.46,10.78,17.88,6.33a44.45,44.45,0,0,0,12-10.57,167,167,0,0,0,15.65-23.12c11.45-21.12,22.13-42.66,33.37-63.89,3.61-6.82,4-14.13,4.43-21.43a358.52,358.52,0,0,1,12.88-75.29c8.6-30.37,20.5-59.32,37.91-85.82,13.32-20.29,29.25-38.13,49.11-52.27,13.79-9.81,28.79-16.72,45.62-19.38a65.61,65.61,0,0,1,27.71,1.11c13.51,3.61,24.07,11.08,30.61,23.45,3.65,6.9,6.21,14.37,9.38,21.53.92,2.07,2.28,3.95,4.19,7.18,4.3-13.65,8.11-25.76,12.07-38.32,12.77-2.89,25.5-1.25,38.08-1.47,12.1-.22,24.29-1.48,36.16.52,1.84,5.88-1.21,10.24-2.75,14.73-19.5,57.11-37.28,114.74-53.93,172.74-17.73,61.77-33.36,124.08-48.2,186.6-1,4.07-1.31,8.29-2.27,14.53,4.1-2.79,6.57-4.22,8.75-6a207.62,207.62,0,0,0,34.27-36.32c16.87-22.39,31.46-46.22,44.85-70.82,25.37-46.6,46.58-95.14,67.42-143.86,3.07-7.18,6.26-14.31,9.95-22.72,1.76,2.5,3.7,4,3.61,5.36a26.85,26.85,0,0,1-2.27,8.38c-22.54,54.94-46.18,109.37-74.3,161.74a675.94,675.94,0,0,1-42.17,69.05c-15.35,21.84-32.42,42-56.08,56.1-4.33,21.07-8.49,42.2-13,63.26-17.17,79.68-38,158.32-67.43,234.49-11,28.41-23.33,56.18-38.33,82.72a299.32,299.32,0,0,1-29.58,43.89c-8.79,10.63-18.45,20.36-29.81,28.29-25.45,17.76-51.89,19.74-78.66,3.69a184.2,184.2,0,0,1-28.12-21.18c-16.94-15.22-30-33.65-41.15-53.42-21.25-37.54-34.4-78-43-120s-10.78-84.67-8.55-127.47c1.1-21.08,3.73-42.08,10.85-62.14a147.71,147.71,0,0,1,10.63-24.18c14.36-25.05,36.18-36.78,65.05-33.52,16.05,1.82,31.62,6.36,47.61,11a58.61,58.61,0,0,1,1.15,7.23,71.17,71.17,0,0,1-.6,8c-4.15-.59-7.47-.72-10.6-1.57-14.18-3.81-25,1.51-33.68,12.33-6.87,8.54-11,18.5-14.16,28.9-5,16.53-7.5,33.57-8.53,50.71-3.89,64.91-1.51,129.51,11.3,193.46,5.22,26,12.14,51.58,23.17,75.82a155.46,155.46,0,0,0,12.66,23.2c14.7,21.57,37.45,30.75,60.12,2.54,8.37-10.41,14.55-22.11,20-34.21,11.15-24.61,20.1-50.06,28.26-75.79,14.26-44.91,25.18-90.71,36.35-136.46,21.17-86.72,43.69-173.1,69.05-258.7a38,38,0,0,0,1.84-13.3c-1.52,2.57-3.11,5.09-4.55,7.7-6.61,12-12.45,24.55-20,36-6.15,9.34-13.81,17.82-21.63,25.87a52,52,0,0,1-26.74,14.69q-20.21,4.39-35.43-9.46c-7.4-6.73-12.37-15.19-16.42-24.2a193.67,193.67,0,0,1-14.66-50.75c-2.33-15.5-3.53-31.18-5.25-46.78-.3-2.7-.68-5.4-1.06-8.45-4.56,1.81-5,5.5-6.49,8.37-8.49,16-16.54,32.33-25.54,48.06a222.66,222.66,0,0,1-19.16,27.86,83.72,83.72,0,0,1-17,16.14c-14.52,10.24-31.15,8.86-44.72-2.7a55.33,55.33,0,0,1-16.05-22.6c-4.33-11.43-8.83-23-11.16-34.95-9.5-48.55-8.37-96.53,9.45-143.46a635.74,635.74,0,0,1,26.09-59.22c5.71-11.4,11.34-22.85,17.05-34.25a99.21,99.21,0,0,0,9.82-32.22,47.75,47.75,0,0,0-1.72-20.39c-2.89-9.27-10.47-13.19-19.63-9.74a35.25,35.25,0,0,0-11.14,6.9,163.74,163.74,0,0,0-15.2,16c-13.9,16.63-25.44,34.9-36,53.75a973.43,973.43,0,0,0-91.36,224.28c-1,3.69-2.32,7.28-3.7,11.58-24.53-1.09-48.3-3.19-72.79-5.82-.62-7.49,2.63-13.18,4.15-19.13,1.57-6.18,3.58-12.24,5.43-18.34q2.53-8.46,5.13-16.89c1.84-6,3.69-12.07,5.63-18.4-4.52-.66-4.87,2.77-6.05,4.75-9.29,15.62-19,31-30.8,44.84a154.85,154.85,0,0,1-14.27,14.82c-23.65,21.22-54.75,10.94-67.12-10.29a112.93,112.93,0,0,1-14.23-39.93c-1.65-10.64-2.34-21.43-3.16-32.18-.48-6.31-.39-12.66-.54-18.68-3.88-2-4.82.58-5.94,2.63-5,9-9.43,18.37-15,27-7.09,11.15-14.72,22-22.71,32.54a85.11,85.11,0,0,1-22.92,20.54c-18.49,11.57-39.63,9.4-55.41-5.63-8.36-8-13.76-17.84-17.66-28.54a174.37,174.37,0,0,1-9.87-50.38c-.81-14.68-.63-29.42-1-44.14-.06-2.24,1.21-4.83-2.13-7.29-1.81,1.94-3.75,3.83-5.49,5.9-13.25,15.78-25.95,32.05-39.81,47.26-19.29,21.16-40.78,39.76-68,50.86-2.47,7.72-4.89,15.15-7.22,22.6C3738,2959,3720,3004.53,3697,3048c-13.36,25.2-28.23,49.43-45.93,71.84a270,270,0,0,1-38.63,40.34,173,173,0,0,1-33,22q-45.1,22.72-92.68,5.62c-29-10.44-52.7-28-70.83-52.94a178.87,178.87,0,0,1-34.11-92.74c-1.51-19.09-2-38.33,2.56-57.14,2.21-9,4.82-18.09,8.71-26.45,12.53-26.87,34.56-40.81,63.64-43.21,11.67-1,23.53,0,35.27.71,8.23.49,16.4,2,24.61,3v10c-4.53-.23-8.32-.34-12.09-.61-16-1.18-28.65,4.88-38.4,17.46a70.14,70.14,0,0,0-13.82,32.14c-2.27,14-4.24,28.19-4.75,42.35-1.08,30.06,2,59.79,10.41,88.81,4.4,15.15,10.26,29.73,19.2,42.78a104.48,104.48,0,0,0,15,18c14.25,13.08,33.34,15.24,50.6,6.48a65.56,65.56,0,0,0,21.69-17.38,321.05,321.05,0,0,0,20.79-28.49c17.92-28.28,31.77-58.64,43.86-89.78,25.55-65.86,51.6-131.51,79.79-196.29,1.92-4.42,4.54-8.54,6.82-12.8a3.47,3.47,0,0,1-.66-1.11c-.07-.33.18-.72.29-1.09C3715.38,2830.27,3715.43,2831,3715.48,2831.8Zm-1975.32-74.5a4.89,4.89,0,0,1,.84-.86c.18-.11.5,0,.76,0-.67.37-1.34.73-1.93,1.09.35.28.82.5,1,.87s-.18.69-.29,1C1740.41,2758.72,1740.29,2758,1740.16,2757.3ZM4544,2914.85c0,17.69.11,35.34,3.5,52.78a78.79,78.79,0,0,0,2.35,10c6.38,19.13,20.25,22.16,34.13,7.22a75.89,75.89,0,0,0,11.23-15.39c7-12.92,14.15-25.85,19.64-39.42,28.3-69.89,46-142.59,55.54-217.29,1.6-12.56,1.15-25.45.82-38.17a65.14,65.14,0,0,0-3.5-18.7c-7.36-22-24.49-26.69-41.94-11.56a68.67,68.67,0,0,0-10.1,10.64c-5.27,7.06-10.82,14.09-14.81,21.88-7.58,14.8-15.12,29.75-20.95,45.29C4556.6,2784.2,4545.79,2848.71,4544,2914.85Zm-2208.11-308c-1.73,3-3.31,5.49-4.57,8.09-8.76,18.08-17.65,36.1-26.15,54.31-16,34.22-30.19,69.15-41.46,105.24-4.25,13.6-7.72,27.4-9,41.58a75.58,75.58,0,0,0,.58,20.44c2.55,13.77,11.23,18.78,24.76,15.34,9.73-2.48,17.92-7.8,25.48-14.17,12.42-10.45,23.41-22.3,33.75-34.8,18.79-22.73,34.65-47.51,50.64-72.2a47.94,47.94,0,0,0,4.67-9.13c13.4-35.84,29.28-70.61,45.35-105.3,1.38-3,2.3-6.2,3.48-9.43C2433.36,2604.83,2361.74,2604.89,2335.91,2606.81Zm-908.42,266.51c.39,8.75.5,19.56,1.49,30.28a89.85,89.85,0,0,0,4.06,20.1c2.9,8.67,10.68,11.84,18.91,8a34.74,34.74,0,0,0,10.61-7.69c4.65-5,9.29-10.26,12.65-16.14,8.26-14.45,16.62-28.93,23.46-44.07,22.47-49.73,38.84-101.53,50.6-154.8,3.8-17.24,6.89-34.62,7.56-52.32.39-10.34.05-20.66-4.33-30.28-6.3-13.84-17.89-18.2-31.39-11.48a48.56,48.56,0,0,0-13,9.38,182.09,182.09,0,0,0-17,20.21c-10,14-17.72,29.35-24.34,45.21C1442.51,2747.84,1430.27,2808.52,1427.49,2873.32Zm2519.16-36.2c.74,6.53,1.74,17.75,3.42,28.87a45.22,45.22,0,0,0,4.52,13.88c4.61,8.79,12.73,11,20.93,5.35a57.23,57.23,0,0,0,13.9-12.92c8.65-11.86,17.27-23.88,24.44-36.66,22.92-40.81,39.73-84.15,51.38-129.48,5.26-20.5,8.69-41.3,8.05-62.53a60.82,60.82,0,0,0-3.22-18.68c-5.77-15.92-21-21.54-35.73-13.41a69.35,69.35,0,0,0-13.91,10.69c-9.32,8.85-16.27,19.59-22.69,30.64-12.1,20.86-21.43,43-29.17,65.78A407,407,0,0,0,3946.65,2837.12Zm-305.84-29.81c0,3.92-.45,7.9.09,11.75,1.22,8.7,2.1,17.58,4.64,25.92,3.34,10.93,12.29,15.21,23.2,11.82a39.76,39.76,0,0,0,12.8-6.8,101.44,101.44,0,0,0,13.48-13.46c10.24-12,18.16-25.51,25.49-39.39,21.67-41,36.47-84.46,45.68-129.8,2.23-11,2.78-22.33,3.37-33.55a42.66,42.66,0,0,0-5.22-22.67c-6.09-11.21-16.24-15.28-28.46-11.9-6.8,1.89-12.43,5.67-17.69,10.13-9.79,8.31-17.81,18.17-25,28.79a276.17,276.17,0,0,0-27.5,53.45C3651.11,2728.81,3642.15,2767.25,3640.81,2807.31Zm-1068.95-24.69c-5,10.9-2.88,21.46-1,32,1.57,8.87,4.78,17,11.1,23.6a28.5,28.5,0,0,0,19.63,8.87c17.12.92,30.95-5.34,39.51-20.47,11.55-20.42,15.3-42.38,9.3-65.28-2-7.49-5.62-14.64-9.25-21.55-9.12-17.35-18.63-34.5-28.08-51.68-1-1.85-2.66-3.35-4.76-5.92-6.09,9.89-11.5,18.61-16.83,27.38a44.35,44.35,0,0,0-2.22,4.77c.87,1.43,1.17,2.53,1.89,3,14.35,9.52,16.26,23.8,14.28,39-2.44,18.77-11.48,26.06-30.61,25.93C2574.35,2782.33,2573.87,2782.42,2571.86,2782.62Zm-532.7-41.69c1.53,0,2.61.29,3.45,0a87.52,87.52,0,0,0,9.41-4.11c34-18.22,59.29-44.74,74.94-80.07a108.29,108.29,0,0,0,7.5-23.78,100.29,100.29,0,0,0,1.44-24.83c-.75-11-9.45-16.15-19.91-12.88a36.39,36.39,0,0,0-17,11.22c-6.35,7.45-12.91,14.87-18.13,23.1-19.87,31.35-33.06,65.57-41.61,101.6C2038.52,2734.21,2039.16,2737.63,2039.16,2740.93Zm2580.2,206.92.44,1,.32-1Z"
    transform="translate(-1166.85 -2379.25)" />
  <path class="cls-1"
    d="M3325.82,2488.66c.29,15.53-4.77,26.85-14.81,35.83-12,10.71-30.32,11.66-43.52,2.54-19.36-13.4-24.78-42-11.66-61.5,9.13-13.59,23.62-19.58,39.51-16.33,14.77,3,27.45,16.77,29.93,32.64A66.42,66.42,0,0,1,3325.82,2488.66Z"
    transform="translate(-1166.85 -2379.25)" />
  <path class="cls-1"
    d="M2987.83,2487c.09,16.33-5.11,28.05-16.09,37a35.23,35.23,0,0,1-43.61.9c-17.72-13.13-22.86-39.15-11.49-58.08,8.35-13.9,23.73-21.59,38.53-18.74,16.57,3.19,26.66,13.67,31.31,29.54C2987.57,2481.26,2987.6,2485.28,2987.83,2487Z"
    transform="translate(-1166.85 -2379.25)" />
  <path class="cls-1"
    d="M3358.74,2718.51c1.43,2.73,2.45,5.33-2.06,6l-.29.11c.87-2,1.74-3.92,2.55-6A2.53,2.53,0,0,0,3358.74,2718.51Z"
    transform="translate(-1166.85 -2379.25)" />
  <path class="cls-1" d="M3356.68,2724.54l.1,1.95c.15-.29.47-.64.4-.87s-.47-.65-.76-1A2.26,2.26,0,0,1,3356.68,2724.54Z"
    transform="translate(-1166.85 -2379.25)" />
  <path class="cls-1" d="M1744.76,2742.26l5.18-3.84-.27-.26c.77,4.45-2.05,4.36-5.08,4Z"
    transform="translate(-1166.85 -2379.25)" />
  <path class="cls-1"
    d="M1744.59,2742.18c.74,1.41,1.47,2.82,2.21,4.22l-1.39.51c-.17-1.5-.34-3-.58-4.58A1.13,1.13,0,0,0,1744.59,2742.18Z"
    transform="translate(-1166.85 -2379.25)" />
  <path class="cls-1" d="M1739.76,2757.51l2-1.09c-.26,0-.58-.09-.76,0a4.89,4.89,0,0,0-.84.86Z"
    transform="translate(-1166.85 -2379.25)" />
  <path class="cls-1"
    d="M1740.16,2757.3c.13.71.25,1.42.38,2.13.11-.36.41-.81.29-1s-.65-.59-1-.87A4.07,4.07,0,0,1,1740.16,2757.3Z"
    transform="translate(-1166.85 -2379.25)" />
  <path class="cls-1"
    d="M4260.72,2784.18a7.08,7.08,0,0,1,.82,2.33c0,.5-.79,1-1.23,1.48-.07-.37-.29-.78-.19-1.09.26-.8.67-1.55,1-2.37C4261,2784.49,4260.72,2784.18,4260.72,2784.18Z"
    transform="translate(-1166.85 -2379.25)" />
  <path class="cls-1" d="M3715.48,2831.8c-.05-.77-.1-1.53-.16-2.3-.11.37-.36.76-.29,1.09a3.47,3.47,0,0,0,.66,1.11Z"
    transform="translate(-1166.85 -2379.25)" />
  <polygon class="cls-1" points="3452.52 568.6 3453.27 568.53 3452.95 569.55 3452.52 568.6" />
</svg>
