<svg id="Layer_1" data-name="Layer 1" xmlns="http://www.w3.org/2000/svg" viewBox="0 0 2398.16 629.34">
  <defs>
    <style>
      .cls-1 {
        fill: #fff;
      }
    </style>
  </defs>
  <path class="cls-1"
    d="M2385.27,2526.26c3-3.17,6.38-6.07,9-9.56,11.41-15.45,23.05-30.59,38.47-42.51,4.33-3.35,7.42-8.41,10.73-12.94a43.19,43.19,0,0,1,27.87-17.55c11.16-2.15,22.3-2.68,35.08-2.49-1.5,3.78-2.16,6.88-3.8,9.35-8.44,12.75-16.08,26-20.83,40.51a153.51,153.51,0,0,0-6.79,29.54c-.84,7.1.6,14.57,1.71,21.77.81,5.2,3.59,9.72,9.27,10.92a17.13,17.13,0,0,0,16.88-5.52c1.85-2,2.81-4.86,4.1-7.36,15-29.07,30-58.14,45.65-88.55a276.44,276.44,0,0,1,53.9-3.83c-1.48,4.63-2.21,8.38-3.84,11.7-7.45,15.19-15.38,30.14-22.71,45.39-14.92,31-29.84,62-44.16,93.25-5.38,11.75-9.28,24.2-13.49,36.46a52.22,52.22,0,0,0-2,26.74c1.1,5.94,5.84,9.08,11.16,6.5,5-2.39,10.06-5.47,13.66-9.52a299.12,299.12,0,0,0,23.14-29.07c19.49-28.45,35.75-58.75,50-90.13,12.62-27.71,25.34-55.37,37.79-82.56,13-4,36.21-5.45,54.07-3.63,1.61,6.23-2.72,10.71-5,15.62-23.66,51.19-47.57,102.27-71.29,153.43-5.7,12.28-11,24.73-16.36,37.16-1,2.36-1.27,5-2.06,8.37,7.7-1.84,12-6.47,16.6-10.46,29.54-25.74,54.07-55.92,76.9-87.55,3.25-4.5,5.2-10,7.55-15.08,15-32.81,30-65.65,44.61-97.79,12.94-3.2,37.72-4.83,55.89-3.74-1.23,3.79-2,7.49-3.56,10.78-13.5,27.93-27.82,55.48-40.56,83.74-10.88,24.13-20.2,49-29.8,73.66-4.31,11.07-7,22.67-6.57,34.7.21,5.49-1,12.1,4.94,15.24,6.39,3.38,12-.34,16.85-4.4a134,134,0,0,0,27.27-32.12c1.91-3.08,1.85-7.46,2.45-11.28,1.21-7.78,1.85-15.68,3.48-23.37,1.77-8.37,5.36-16.22,11.45-22.31,3.9-3.9,8.68-8.95,13.48-9.44,8.83-.91,13.5-6.57,19.14-11.56l-.42-.39c-.89,3.78-1.78,7.56-2.79,11.87,11.26,13.21,11.09,28.56,5.85,44.27-2.85,8.52-8.35,14.68-18.44,14.65a32.79,32.79,0,0,0-5.42,1c-4.38,14.63-3.77,28.83,2.81,42.55,3.73,7.75,10.24,11.56,19,11.75,12.05.26,20.56-5.36,26.12-15.52,11-20.13,14.57-41.89,8.51-63.83-5.83-21.09-14.38-41.43-21.75-62.13l-7.18,1.79.42.28a128.63,128.63,0,0,0,6.6-31.1c1.39-15.47,7.69-29.37,17.43-41.53a67.76,67.76,0,0,1,73-22.47c19.32,5.89,28.59,18.54,28.49,38.79-.06,12.82-3.11,24.65-11.94,34.31-9.46,10.36-18.22,10.53-31.68.27,1.19-3.74,2.56-7.9,3.82-12.1a85,85,0,0,0,2-40.15c-1.9-10.48-6.95-16.16-14.1-16.78-6.91-.6-14,4.24-17.85,13.19a63.63,63.63,0,0,0-2.69,44.63c2.59,8.61,6.17,16.92,9.5,25.29,3.54,8.91,7.7,17.58,10.9,26.59,12.5,35.28,9.35,68.66-12.86,99.53a27.68,27.68,0,0,0-1.77,2.85,8.21,8.21,0,0,0-.54,1.56c2.08,2.31,4.13,1,5.82-.35,7.55-5.86,15.43-11.4,22.38-17.92,16.92-15.91,31.06-34.23,43.76-53.6,3.34-5.1,5.53-11,7.66-16.82,15.29-41.26,33.8-81.11,51.81-120.69,13.79-3.57,35.5-5.08,54.22-3.91,2.07,4.9-1.3,8.53-3.1,12.42-13.22,28.66-27.21,57-39.62,86-10,23.28-18.31,47.26-26.84,71.12-4.39,12.26-6.72,25.06-5.36,38.24,1.28,12.25,8.23,15.73,18.42,8.77a62.52,62.52,0,0,0,12.42-11.35c17.49-20.79,32.44-43.15,42.87-68.48,16.08-39.08,32.67-78,49.14-116.88,2.39-5.65,5.25-11.1,8-16.93,17.64-2.32,34.85-4.44,53.67-3.68-1.6,4.36-2.58,8-4.2,11.3-12.1,24.82-24.43,49.53-36.42,74.4-2.38,4.93-6,9.74-4.46,15.87a19.3,19.3,0,0,0-2.62.91c-.16.08,0,.84,0,1.29l2.14-2.64c3.94-6.09,7.82-12.24,11.85-18.28,11.25-16.89,22-34.14,34.07-50.44,7-9.45,15.69-17.74,24.3-25.83a64.19,64.19,0,0,1,16.76-11.21c22.71-10.47,44.59,1.08,47.65,25.75a109.61,109.61,0,0,1-1.19,31.92c-1.83,10.45-5.56,20.71-9.61,30.58-6.21,15.12-13.4,29.84-20.18,44.72-6.08,13.35-12.59,26.52-18.09,40.1a142.67,142.67,0,0,0-7.46,25.93c-1.06,5.39-.66,11.28.16,16.79,1.11,7.55,7.31,10.56,13.7,6.74a48.78,48.78,0,0,0,11.7-9.54c14.11-16.27,25.39-34.53,35.75-53.33,2.08-3.77,2.56-8.55,3.23-13a231.13,231.13,0,0,1,30.63-85.48c12.35-20.53,27.63-38.5,47.68-52,12.83-8.64,26.65-14.63,42.44-15.15,15.54-.5,27.45,5.07,34.33,19.66,1.37,2.9,3.17,5.6,5.54,9.72,3.57-8.12,6.48-14.76,9.68-22.05,16.73-4.9,34.11-3.5,51.21-4.86,1.73,7.53-2.19,12.16-4.19,17.24-20.1,50.89-40.37,101.7-60.38,152.62-5,12.59-9.19,25.46-13.64,38.25-.87,2.51-1.22,5.21-2.32,10.05,4.29-2.11,6.79-2.9,8.76-4.38,13.62-10.23,25.37-22.43,36-35.65,8.83-11,17-22.53,25.57-33.7a54.86,54.86,0,0,0,11.11-27.83c2.65-22.17,10.59-42.65,21.9-61.77,13.85-23.44,32.58-41.73,57.86-52.65a103.39,103.39,0,0,1,39.39-8.58c18.44-.36,33,7,44,21.16,5.46,7.06,9.59,15.23,13.8,23.17,4,7.46,6.92,15.45,10.9,22.91a123.4,123.4,0,0,0,10.2,15.51c3.52,4.74,8.65,7.18,14.45,8a12.93,12.93,0,0,0,13.87-7.26c2.61-5,4.78-10.22,7.45-15.18,12.81-23.76,29.75-43.78,52.84-58.26a98.47,98.47,0,0,1,39.33-14.63c15.42-2.12,24.44,2.54,31.76,16.54,2.26,4.34,4.21,8.85,7.31,15.4,25.73-64.31,52.69-125.66,84.75-185.14,17.28-3.9,34.63-4,51.73-4.9,2.51,6-1.09,9.41-3.13,13.07-23.85,42.93-46,86.71-66,131.58-24.56,55.19-46.83,111.26-64,169.24-3,10.27-6.23,20.62-7.76,31.16a113.19,113.19,0,0,0-.35,28.55c.91,8.07,8.84,10.75,15.28,5.7a64.18,64.18,0,0,0,13-13.14c8.74-12.44,17.83-24.83,24.85-38.25,16.47-31.46,31.76-63.54,47.67-95.3,2.36-4.71,3.35-10.42,10.15-15.25-1.12,4.13-1.39,6.23-2.23,8.07-18.26,40-36,80.33-58.18,118.38-7.38,12.63-15.7,24.75-24.15,36.71a55.77,55.77,0,0,1-20.27,17.63c-16.26,8.32-29.74,4.28-38.47-11.78-6-11.11-8.58-23.21-9.16-35.76-.25-5.34-.4-10.68-.74-19.8-4.39,7.6-6.68,11.93-9.29,16.05-7.84,12.37-15.35,25-23.89,36.88-7,9.78-16.56,16.92-28.52,20.09-17.9,4.74-29.51-.51-37.34-17.23a100.48,100.48,0,0,1-8.81-32.53,225.17,225.17,0,0,1,5.07-75.64c1.17-4.91,2.47-9.79,3.69-14.62-7-2.91-14.23-4.71-20-8.7s-10-10.2-14.83-15.28c-4.52,2.27-3.38,6.1-3.66,9.21-3.5,39.05-16.65,74.69-38,107.39-9.62,14.75-21.23,27.77-35.61,38.16a81.14,81.14,0,0,1-30.51,14c-27,5.91-52.45-5.31-66.16-29.43-8-14-11.57-29.32-12.75-45.24-.41-5.58-.07-11.23-.07-16.31-4.63-2.41-5.84.53-7.46,2.6-11.82,15.09-23.37,30.41-35.55,45.21-9.71,11.81-20.89,22.31-34,30.27-6.38,3.87-9.11,9.24-11.38,15.89-8.75,25.61-17.4,51.28-27.22,76.48a379.89,379.89,0,0,1-36.47,70.55c-10.58,16.12-22.56,31-37.45,43.44-15.53,12.94-33.06,22-53.37,23.47-34.89,2.56-66.18-6.77-90.73-32.63-22.65-23.85-27.76-53.35-24.23-85,.19-1.68.65-3.33,1-5,7.35-37.68,31.05-57.63,69.59-58.44,7.33-.15,14.67.08,22,.26,1,0,2,.78,4,1.59-.89,1.81-1.34,4.56-2.66,5.08-3.07,1.2-6.55,1.45-9.89,1.87-10.89,1.37-18.61,7.48-24.6,16.24a63.82,63.82,0,0,0-9.77,25.05,160.65,160.65,0,0,0,3.45,72.11c4.12,14.9,11.07,28.37,22.41,39.21,18.87,18,41.8,17.85,59.77-1.2,6.13-6.5,11.17-14.19,15.81-21.87,11.42-18.9,19.63-39.33,27.43-59.93q25.17-66.45,50.61-132.81c2.4-6.25,5.68-12.17,8.45-18.32-.1-1-.08-2-.11-2.89,0-.43-.11-.85-.16-1.28-.35.68-1.09,1.45-1,2a8.55,8.55,0,0,0,1.53,2.44c-2,.23-4.73-.28-5.94.83-2.85,2.65-4.78,6.27-7.46,9.15-5.75,6.18-11.14,12.93-17.79,18a80.31,80.31,0,0,1-22.07,12c-17,5.79-29.81.16-38.25-15.62a83,83,0,0,1-9.16-32.34c-.44-4.89-.87-9.79-1.27-14.3-5-1.52-5.67,2-7.1,4-8.39,12-16.28,24.4-25.12,36.07-4.71,6.22-10.7,11.59-16.67,16.7a33.74,33.74,0,0,1-18.36,8c-13.23,1.49-23.11-3.28-29.56-15-6.71-12.2-8.73-25.59-9.24-39.17a129.83,129.83,0,0,1,10.64-57.78c6.11-13.93,13.08-27.49,20.12-41,5.73-11,12.35-21.53,18.17-32.49,4.8-9,8.3-18.58,7.35-29.13-.89-9.82-8.21-14.05-16.65-9.07a48.39,48.39,0,0,0-12.88,10.76c-9.61,11.79-19.38,23.57-27.64,36.3a741.39,741.39,0,0,0-74.91,149.43c-1.91,5.23-3.91,10.43-5.88,15.7-17.68,1.48-34.28,4.63-52.25,3.72,1.15-13.59,9.44-24.46,11.48-40.47-4.93,5.93-7.66,9.25-10.43,12.53-6.56,7.73-12.85,15.73-19.81,23.08a46.18,46.18,0,0,1-26.61,13.76c-13.15,2.19-23.57-2.55-29.67-14.33a68.22,68.22,0,0,1-5.48-15.89,101.13,101.13,0,0,1-1.57-35.34c.44-3.65.58-7.33,1.12-14.33-5,5.78-8,8.91-10.63,12.3-12.15,15.67-25.49,30.12-41.38,42.14-19.38,14.65-40.89,23.68-65.24,25.53a106.19,106.19,0,0,1-11.82.48c-26.36-1-41.6-12.69-49.75-37.93-1-3.11-2.12-6.19-3.75-11-3.9,4.5-6.68,7.73-9.48,10.94-6.66,7.65-13,15.62-20.08,22.85a46.51,46.51,0,0,1-28.24,14.07c-14.39,1.72-24-3.43-30-16.55a63.21,63.21,0,0,1-5.66-29.68c.67-12.34,2.72-24.6,4.19-36.89.44-3.63,1-7.26,1.93-14.45-4.95,5.45-7.52,8.21-10,11-12.67,14.4-24.74,29.37-38.16,43-10.22,10.41-21.7,19.73-33.43,28.45a41.81,41.81,0,0,0-14.11,18.16c-10.88,25.39-22,50.69-33.95,75.59a251.18,251.18,0,0,1-37,56.5c-18.58,21.35-40.79,37.2-68.59,44.19-22.14,5.57-44.51,7.57-67,2.12a125.67,125.67,0,0,1-22.44-7.28c-25-11.38-40-30.44-43-58.25-2.66-24.14,2.81-46.09,18.17-65,17.6-21.64,43-30.83,76.27-18.34.67.25.92,1.61,1.42,2.57-2.94,3.93-7.21,2.38-10.84,2.49-12.68.38-21.14,7-26.87,17.65a66,66,0,0,0-5.79,14,132.87,132.87,0,0,0-.12,70.21,67.24,67.24,0,0,0,4.85,12.59c16,32.16,47.93,31,67.42,19.45a72.08,72.08,0,0,0,23.41-21.73c9.42-14,19-28.11,26.54-43.15,12.15-24.17,23-49,33.88-73.79,12.92-29.43,25.23-59.13,38-88.63,2.19-5.06,5.36-9.7,8-14.62-.12-1.05-.07-2-.27-3-.08-.38-.73-.64-1.12-.95a4.75,4.75,0,0,0,.14,1.47c.39.93.92,1.81,1.39,2.71-2,.45-4.76.23-5.93,1.48-2.66,2.84-4.43,6.49-6.76,9.66-7,9.55-13.47,19.59-21.34,28.36-7.1,7.91-15.4,14.89-23.85,21.39a41.34,41.34,0,0,1-27,8.32c-6.75-.2-12.4-2.71-15.72-8.35a67.29,67.29,0,0,1-7.15-17c-4.83-18.56-2-37.08,2.2-55.28,2.5-11,6.6-21.54,10-32.28,1.3-4.05,2.74-8.06,4.91-14.4-5.28,2.05-8.16,3.57-11.22,4.29-7.09,1.67-14.22,3.6-21.43,4.26-16.78,1.54-27.95-6.91-34.77-21.57a60.87,60.87,0,0,1-5.16-33c1-8.87,2.58-17.68,4.18-28.36-3.36,2.19-5.93,3.13-7.45,5-7.92,9.52-16.17,18.86-23.24,29-30.12,43.24-53.87,89.93-73.91,138.58-2.13,5.16-4.42,10.26-6.73,15.62-16.45,3.85-32.75,2.57-48.05,4.22-4.42-4.94-1.39-8.41.07-11.77q22.61-52,45.38-103.89c2.21-5.07,4.26-10.22,6.47-15.55-22.21-3.19-22.21-3.19-37.73-24.87-4.34,1.26-3,5.33-3.57,8.08a257.24,257.24,0,0,1-40.27,96.1c-12.55,18.32-27.44,34.42-46.27,46.48-13.53,8.67-28.11,14.26-44.49,14.2-27.35-.1-46.41-13.39-54.59-39.46-2.84-9-3.56-18.76-5.1-28.19-.62-3.74-.85-7.54-1.26-11.33-5.7.45-6.63,4.95-8.91,7.88-10,12.92-19.33,26.45-30,38.82-7.67,8.91-16.71,16.78-25.8,24.3a35.65,35.65,0,0,1-23.46,8.33c-10.76-.08-18.8-4.76-22.74-14.5a73.25,73.25,0,0,1-4.82-21.25c-1.25-15.35,1.79-30.32,6-45.07,1.45-5.16,2.58-10.42,2-16.49-3.28,3.75-6.53,7.54-9.86,11.25-13.54,15.13-26.61,30.71-40.84,45.17a159.82,159.82,0,0,1-28.87,23.31c-8.34,5.22-12.48,12.06-16,20.67-11,27.17-21.88,54.45-34.32,81-9.79,20.9-21.44,41-33,61a180.13,180.13,0,0,1-30.16,38.57c-29.85,29.28-65.53,36.16-104.76,25.72-26.82-7.14-45.14-25.12-54.69-51.13a116.6,116.6,0,0,1-3.21-71.6c9-33.65,32.61-52.07,67.62-53,7.28-.19,14.57,0,23.15,0-.93,3.19-.92,6-2.15,6.75-2.28,1.37-5.26,1.86-8,2.13-12.38,1.18-20.55,8.39-26.88,18.36a68.45,68.45,0,0,0-9.73,26.89c-3.26,22-3,44,3.42,65.41a128.32,128.32,0,0,0,10,23.22c4.56,8.55,11.31,15.47,19.28,21.06,20.93,14.67,42.93,11,57.37-9.93a110.74,110.74,0,0,0,10.49-19.29c7.27-17.12,14.53-34.28,20.87-51.77a1514.75,1514.75,0,0,1,59.84-141.79c2.41-5,4.53-10.12,7-15.65-4.22-1.1-5,2.07-6.61,3.71-8.71,8.79-17,18.07-26.19,26.3a51.92,51.92,0,0,1-27.43,12.36c-12.05,1.79-21.47-2.1-26.78-13.05a85.18,85.18,0,0,1-7.32-24.06c-3.27-21.5-.48-42.83,4.58-63.77a251.67,251.67,0,0,1,49.87-100.79c12.56-15.45,27.11-28.73,44.42-38.72,11.85-6.84,24.43-11.45,38.37-11.9,13.19-.42,27.58,4.95,32.5,21.57a40.46,40.46,0,0,0,2.73,6.15c.21.45.85.68,2.29,1.77l12.2-22,49.72-2.65c2.6,6.16-1.24,9.65-3.14,13.45-13.89,27.74-28.45,55.15-41.93,83.09-17.4,36.06-34,72.5-50.89,108.82-2.07,4.47-3.56,9.22-5.29,13.75,3.91,2.84,6.08.1,7.84-1.31,8.79-7.05,17.73-14,25.87-21.77,21.3-20.32,39.62-43.25,56.84-67.06a60.65,60.65,0,0,0,6.7-11.7c24.66-58.29,54.44-114,85.17-169.22,19.2-34.5,39.42-68.44,58.67-102.91,4.7-8.43,10.55-12.17,20.12-12.26,11.83-.11,23.64-1.49,35.46-2.19,1.57-.09,3.19.58,4.82.91,1.38,6.09-3.11,9.61-5.51,13.78-23.63,41.08-47.85,81.82-71.06,123.12-30.69,54.6-59.55,110.17-84.8,167.53-9.09,20.65-18.11,41.4-22.69,63.64a86.66,86.66,0,0,0-1.79,20.06c.23,7,5.94,10,11.89,6.6a55.16,55.16,0,0,0,12.19-8.94c20-20.16,36.06-43.36,51.08-67.26,3.42-5.45,4.09-12.77,5.45-19.35a196.4,196.4,0,0,1,32.19-74c12.16-17.28,26.89-31.93,45.27-42.58,16.85-9.75,34.78-15.75,54.56-15.93,18.62-.17,32.9,7.57,42.46,23.1,5,8.07,8.33,17.19,11.83,26.07,3.09,7.86,5,16.18,8.1,24a74.45,74.45,0,0,0,8.56,16.44c9.64,13.32,26.95,12,34.23-2.68,10-20.2,19.53-40.68,29.35-61,2.42-5,5.18-9.85,8.06-15.29,15.69-.42,30.85-.88,46-1.19,2.12,0,4.25.62,7.63,1.16-1.82,4.25-3,7.84-4.83,11.13-9.14,16.86-18.55,33.58-27.6,50.49-2.05,3.85-3,8.27-4.52,12.42-1.72,1.93-3.56,3.77-5.14,5.81-2.26,2.93-4.33,6-6.46,9a4.58,4.58,0,0,1,.82,1.38c.08.32-.23.73-.37,1.1l-.17-2.6C2381.62,2539.29,2383.87,2533.12,2385.27,2526.26ZM2126,2650.51c1,7.11,1.26,13.94,3,20.36,2.29,8.31,9.43,11.57,17.24,7.7,5.4-2.68,10.91-6.38,14.6-11,8.7-11,17.33-22.27,24.25-34.42a548.36,548.36,0,0,0,52.66-127.66c2.8-10.25,4.24-20.93,5.57-31.51a44.54,44.54,0,0,0-1-15.07c-2.05-9.1-9.54-13.13-18-9.17a65.5,65.5,0,0,0-16.49,11.4c-12.07,11.22-21,24.95-29.11,39.18a455.16,455.16,0,0,0-46.37,115.61C2129.5,2627.33,2128.05,2639.09,2126,2650.51Zm1429.11-17.09c-.61,12.47.68,25.09,3.37,31.77,4.46,11.11,13.21,14,22.76,6.66a51.85,51.85,0,0,0,12.59-13.47c7.36-12,14.63-24.12,20.45-36.88A501,501,0,0,0,3648,2518.93a379.77,379.77,0,0,0,6.55-45.08c.6-6.49-.8-13.52-2.8-19.83-2.83-8.94-10.18-12.32-18.78-8.57a52.24,52.24,0,0,0-15,10.6c-9.79,9.53-16.84,21.19-22.83,33.35A395.84,395.84,0,0,0,3555.1,2633.42Zm-1745.68,4c1,6.31,1.43,12,2.84,17.33s6.33,7.79,11.93,6.63c6.39-1.33,11.41-5.16,15.31-9.93,7.82-9.56,15.82-19.12,22.38-29.54,23.79-37.85,41.44-78.6,54.52-121.28a167.29,167.29,0,0,0,5.76-29.75,41.7,41.7,0,0,0-1.87-16.56c-2.39-7.83-10.11-11.38-17.59-8a61,61,0,0,0-15.37,10.07c-11,9.8-19.42,21.86-27,34.43a372.16,372.16,0,0,0-44.63,110.67C1813,2613.49,1811.41,2625.79,1809.42,2637.41Zm1533.43-8.26c.6,4.59,1,13.1,3,21.24,2.21,9.25,10,12.43,18.27,7.64a41.87,41.87,0,0,0,12.71-10.85c7.29-10,14.44-20.24,20.23-31.13,17.54-33.06,29.81-68.15,38.06-104.62a203.06,203.06,0,0,0,5-30,61.68,61.68,0,0,0-2.26-21.63c-3.45-11.61-13.53-15-24.16-8.72a47.15,47.15,0,0,0-11.67,9.6c-5.51,6.38-11.15,12.93-15.14,20.27-7.79,14.34-15.41,28.9-21.41,44A317.49,317.49,0,0,0,3342.85,2629.15Zm432.82-23.63c.42,8.4.41,15.19,1.22,21.88a48.52,48.52,0,0,0,3.53,12.94c2.59,6,7.8,7.73,14,5.56,6.71-2.35,11.37-7.18,15.59-12.52,8.8-11.11,15.48-23.49,21.23-36.39a492.59,492.59,0,0,0,27.36-79.81c3.31-13.08,5.79-26.39,8.16-39.68a57.9,57.9,0,0,0-1.12-26.8c-3.39-11.46-11.37-15.15-22-9.48a45.7,45.7,0,0,0-11.89,9.26,105.85,105.85,0,0,0-12.24,16.11C3793,2509.71,3779.5,2556.89,3775.67,2605.52Z"
    transform="translate(-1619.7 -2273.51)" />
  <path class="cls-1"
    d="M2806,2369.63c.65-11.15,3.24-21.36,10.88-29.69,13.34-14.55,33.17-11.25,41.14,6.81,6.91,15.65,1.87,38.32-11.06,49.73-11.84,10.45-26.1,8.58-34.63-4.6C2807.9,2385.06,2806.37,2377.4,2806,2369.63Z"
    transform="translate(-1619.7 -2273.51)" />
  <path class="cls-1"
    d="M3075.06,2367.88c-.13-11.14,3.31-21,11.37-29,11.75-11.59,28.66-9.55,37.59,4.37,10.6,16.52,5.55,43.48-10.28,54.95-10.23,7.41-22.09,6.11-30.21-3.49C3077,2387,3074.63,2377.91,3075.06,2367.88Z"
    transform="translate(-1619.7 -2273.51)" />
  <path d="M2839,2549.87c-.1-2.88.17-5.57,3.37-6.82l-.42-.28c.18,2.92.42,5.87-3.38,6.82Z"
    transform="translate(-1619.7 -2273.51)" />
  <path d="M2835.6,2556.77c-.27-3-.23-5.81,3.38-6.9l-.43-.28c.19,2.92.2,5.74-3.37,6.79Z"
    transform="translate(-1619.7 -2273.51)" />
  <path class="cls-1"
    d="M2373.15,2540.66c2.16-3,4.23-6.09,6.49-9,1.58-2,3.42-3.88,5.14-5.81l.49.43c-1.4,6.86-3.65,13-11.81,14.29Z"
    transform="translate(-1619.7 -2273.51)" />
  <path class="cls-1"
    d="M2373.46,2540.55l.17,2.6c.14-.37.45-.78.37-1.1a4.58,4.58,0,0,0-.82-1.38S2373.46,2540.55,2373.46,2540.55Z"
    transform="translate(-1619.7 -2273.51)" />
  <path class="cls-1"
    d="M3150.45,2553l-2.14,2.64c0-.45-.2-1.21,0-1.29a19.3,19.3,0,0,1,2.62-.91S3150.45,2553,3150.45,2553Z"
    transform="translate(-1619.7 -2273.51)" />
  <path class="cls-1"
    d="M2587,2619.91c-.47-.9-1-1.78-1.39-2.71a4.75,4.75,0,0,1-.14-1.47c.39.31,1,.57,1.12.95.2.93.15,1.92.27,3A.83.83,0,0,1,2587,2619.91Z"
    transform="translate(-1619.7 -2273.51)" />
  <path class="cls-1"
    d="M3393,2646.74a8.55,8.55,0,0,1-1.53-2.44c-.13-.57.61-1.34,1-2,.05.43.15.85.16,1.28,0,.93,0,1.86.11,2.89C3392.8,2646.53,3393,2646.74,3393,2646.74Z"
    transform="translate(-1619.7 -2273.51)" />
</svg>
